<?xml version="1.0" encoding="UTF-8" standalone="no"?>
<svg
   xmlns:dc="http://purl.org/dc/elements/1.1/"
   xmlns:cc="http://creativecommons.org/ns#"
   xmlns:rdf="http://www.w3.org/1999/02/22-rdf-syntax-ns#"
   xmlns:svg="http://www.w3.org/2000/svg"
   xmlns="http://www.w3.org/2000/svg"
   xmlns:xlink="http://www.w3.org/1999/xlink"
   xmlns:sodipodi="http://sodipodi.sourceforge.net/DTD/sodipodi-0.dtd"
   xmlns:inkscape="http://www.inkscape.org/namespaces/inkscape"
   width="1500"
   height="1500"
   viewBox="0 0 396.87499 396.87501"
   version="1.1"
   id="svg8"
   inkscape:version="1.0 (6e3e5246a0, 2020-05-07)"
   sodipodi:docname="kenu.svg">
  <defs
     id="defs2">
    <linearGradient
       id="linearGradient1648"
       inkscape:collect="always">
      <stop
         style="stop-color:#ff0066;stop-opacity:1"
         offset="0"
         id="stop1644" />
      <stop
         id="stop1646"
         offset="1"
         style="stop-color:#ffd42a;stop-opacity:1" />
    </linearGradient>
    <linearGradient
       inkscape:collect="always"
       id="linearGradient1514">
      <stop
         style="stop-color:#800033;stop-opacity:1"
         offset="0"
         id="stop1510" />
      <stop
         id="stop1632"
         offset="0.18577902"
         style="stop-color:#ff0066;stop-opacity:1" />
      <stop
         style="stop-color:#ffd42a;stop-opacity:1"
         offset="1"
         id="stop1512" />
    </linearGradient>
    <linearGradient
       id="linearGradient1338"
       inkscape:collect="always">
      <stop
         style="stop-color:#2a7fff;stop-opacity:1"
         offset="0"
         id="stop1334" />
      <stop
         id="stop1336"
         offset="1"
         style="stop-color:#00ffcc;stop-opacity:1" />
    </linearGradient>
    <linearGradient
       inkscape:collect="always"
       id="linearGradient1288">
      <stop
         style="stop-color:#6600ff;stop-opacity:1"
         offset="0"
         id="stop1284" />
      <stop
         id="stop1292"
         offset="0.20624167"
         style="stop-color:#2a7fff;stop-opacity:1" />
      <stop
         style="stop-color:#00ffcc;stop-opacity:1"
         offset="1"
         id="stop1286" />
    </linearGradient>
    <linearGradient
       inkscape:collect="always"
       xlink:href="#linearGradient1288"
       id="linearGradient1290"
       x1="1148.1914"
       y1="1311.23"
       x2="744.83594"
       y2="131.41406"
       gradientUnits="userSpaceOnUse"
       gradientTransform="matrix(0.2150877,0,0,0.2150877,13.011372,28.410102)" />
    <linearGradient
       inkscape:collect="always"
       xlink:href="#linearGradient1338"
       id="linearGradient1330"
       x1="700.97876"
       y1="335.12839"
       x2="702.98816"
       y2="56.531139"
       gradientUnits="userSpaceOnUse" />
    <linearGradient
       inkscape:collect="always"
       xlink:href="#linearGradient1338"
       id="linearGradient1349"
       gradientUnits="userSpaceOnUse"
       x1="700.97876"
       y1="335.12839"
       x2="702.98816"
       y2="56.531139" />
    <linearGradient
       inkscape:collect="always"
       xlink:href="#linearGradient1338"
       id="linearGradient1351"
       gradientUnits="userSpaceOnUse"
       x1="700.97876"
       y1="335.12839"
       x2="702.98816"
       y2="56.531139" />
    <linearGradient
       inkscape:collect="always"
       xlink:href="#linearGradient1338"
       id="linearGradient1353"
       gradientUnits="userSpaceOnUse"
       x1="700.97876"
       y1="335.12839"
       x2="702.98816"
       y2="56.531139" />
    <linearGradient
       inkscape:collect="always"
       xlink:href="#linearGradient1338"
       id="linearGradient1355"
       gradientUnits="userSpaceOnUse"
       x1="700.97876"
       y1="335.12839"
       x2="702.98816"
       y2="56.531139" />
    <linearGradient
       inkscape:collect="always"
       xlink:href="#linearGradient1338"
       id="linearGradient1357"
       gradientUnits="userSpaceOnUse"
       x1="700.97876"
       y1="335.12839"
       x2="702.98816"
       y2="56.531139" />
    <linearGradient
       inkscape:collect="always"
       xlink:href="#linearGradient1514"
       id="linearGradient1516"
       x1="247.81763"
       y1="1130.999"
       x2="123.91717"
       y2="845.95984"
       gradientUnits="userSpaceOnUse" />
    <linearGradient
       inkscape:collect="always"
       xlink:href="#linearGradient1648"
       id="linearGradient1640"
       x1="691.98419"
       y1="270.19281"
       x2="691.98419"
       y2="56.298275"
       gradientUnits="userSpaceOnUse" />
    <linearGradient
       inkscape:collect="always"
       xlink:href="#linearGradient1648"
       id="linearGradient1660"
       gradientUnits="userSpaceOnUse"
       x1="691.98419"
       y1="270.19281"
       x2="695.91956"
       y2="-16.118372"
       gradientTransform="matrix(3.7795276,0,0,3.7795276,-142.00012,3084.5766)" />
  </defs>
  <sodipodi:namedview
     id="base"
     pagecolor="#a3a3a3"
     bordercolor="#666666"
     borderopacity="1.0"
     inkscape:pageopacity="0"
     inkscape:pageshadow="2"
     inkscape:zoom="4.0373333"
     inkscape:cx="619.37553"
     inkscape:cy="3909.489"
     inkscape:document-units="px"
     inkscape:current-layer="g1273"
     inkscape:document-rotation="0"
     showgrid="false"
     units="px"
     borderlayer="false"
     inkscape:pagecheckerboard="true"
     inkscape:window-width="1920"
     inkscape:window-height="1016"
     inkscape:window-x="0"
     inkscape:window-y="27"
     inkscape:window-maximized="1"
     showguides="true"
     inkscape:guide-bbox="true">
    <sodipodi:guide
       position="415.22465,286.77758"
       orientation="-1,0"
       id="guide1306"
       inkscape:label=""
       inkscape:locked="false"
       inkscape:color="rgb(138,226,52)" />
    <sodipodi:guide
       position="1055.6116,353.00931"
       orientation="-1,0"
       id="guide1308"
       inkscape:label=""
       inkscape:locked="false"
       inkscape:color="rgb(138,226,52)" />
    <sodipodi:guide
       position="360.29541,126.35442"
       orientation="0,1"
       id="guide1310"
       inkscape:label=""
       inkscape:locked="false"
       inkscape:color="rgb(252,233,79)" />
    <sodipodi:guide
       position="415.22464,61.746606"
       orientation="0,1"
       id="guide1312"
       inkscape:label=""
       inkscape:locked="false"
       inkscape:color="rgb(252,233,79)" />
    <sodipodi:guide
       position="449.28464,340.34386"
       orientation="0,1"
       id="guide1314"
       inkscape:label=""
       inkscape:locked="false"
       inkscape:color="rgb(252,233,79)" />
  </sodipodi:namedview>
  <metadata
     id="metadata5">
    <rdf:RDF>
      <cc:Work
         rdf:about="">
        <dc:format>image/svg+xml</dc:format>
        <dc:type
           rdf:resource="http://purl.org/dc/dcmitype/StillImage" />
        <dc:title />
      </cc:Work>
    </rdf:RDF>
  </metadata>
  <g
     inkscape:label="sketch"
     inkscape:groupmode="layer"
     id="layer1"
     style="display:none;opacity:0.268167"
     sodipodi:insensitive="true">
    <path
       style="opacity:0.998;fill:#333333;stroke-width:1.4427;paint-order:stroke markers fill;stop-color:#000000"
       id="path839"
       d="m 142.29734,274.7036 c -1.30125,1.67036 -2.70652,3.25757 -4.06522,4.88142 -1.66364,1.96505 -3.19565,4.04318 -4.94637,5.93453 -1.28704,1.39043 -1.96252,1.96877 -3.35822,3.26675 -2.56332,2.26077 -5.08944,4.65375 -8.06564,6.37133 -0.22462,0.11419 -0.91858,0.48153 -1.21021,0.58385 -0.10408,0.0366 -0.22205,0.10524 -0.32456,0.0645 -0.0626,-0.0248 -0.0728,-0.2418 -0.0192,-0.20107 0.6054,0.45998 1.04033,1.15952 1.72252,1.49522 0.17387,0.0856 0.18232,-0.342 0.27347,-0.513 0.16058,-0.22821 0.3098,-0.46485 0.48173,-0.68465 0.59171,-0.75645 1.15719,-1.34871 1.83752,-2.04152 1.51636,-1.54419 3.11527,-2.99154 4.72868,-4.43253 4.09508,-3.54172 8.15079,-7.13024 12.29054,-10.61978 2.1517,-1.86907 4.45714,-3.54627 6.70171,-5.29862 1.77149,-1.383 3.49366,-2.81819 5.29007,-4.16905 0.40324,-0.33895 0.80649,-0.67791 1.20973,-1.01687 0,0 -0.10297,-0.1075 -0.10297,-0.1075 v 0 c -0.49892,0.23954 -0.99784,0.47908 -1.49676,0.71861 -0.49719,0.29197 -3.33282,1.95394 -3.70002,2.18404 -3.14992,1.97378 -6.01832,4.33806 -8.91038,6.66291 -4.16147,3.47071 -8.23664,7.04087 -12.38858,10.52291 -1.67196,1.38541 -3.35519,2.75307 -4.97779,4.19637 -0.32464,0.28877 -1.66876,1.49042 -2.0471,1.87119 -0.19927,0.20055 -0.37602,0.4223 -0.56403,0.63344 -0.87841,1.12117 -0.59386,0.44339 1.10048,2.5786 0.0366,0.0461 0.11988,5e-5 0.17538,-0.0195 0.2227,-0.0782 0.61006,-0.33643 0.76658,-0.44775 0.20773,-0.14774 0.40544,-0.30908 0.60816,-0.46362 2.61482,-2.20346 5.11574,-4.53563 7.57424,-6.9117 2.88693,-2.95547 5.72325,-5.96585 8.49353,-9.03059 1.40824,-1.56138 2.85347,-3.09392 4.32628,-4.59271 0,0 -1.40356,-1.41531 -1.40356,-1.41531 z" />
    <path
       style="opacity:0.998;fill:#333333;stroke-width:1.4427;paint-order:stroke markers fill;stop-color:#000000"
       id="path841"
       d="m 120.02611,299.16423 c 0.0885,-0.0634 0.17242,-0.13369 0.26555,-0.19007 0.37896,-0.22943 0.79969,-0.36368 1.16189,-0.62558 0.36315,-0.2626 0.69403,-0.56718 1.04375,-0.8474 2.39342,-1.78823 5.28134,-2.68569 8.03489,-3.75333 0.65839,-0.25568 1.31226,-0.52334 1.97517,-0.76706 1.98264,-0.72892 2.66493,-0.91363 4.70109,-1.57907 2.76885,-0.90486 5.52757,-1.84058 8.29029,-2.76387 4.77183,-1.57638 9.51037,-3.27052 14.35939,-4.60166 0.97481,-0.2676 1.95733,-0.50624 2.93599,-0.75936 5.90504,-1.47545 11.98751,-1.92866 18.0433,-2.27813 6.36755,-0.37809 12.7457,-0.4794 19.12284,-0.51502 4.74992,-0.0449 9.49772,-0.15005 14.24523,0.0463 0.42973,0.0226 2.1827,0.17441 2.72755,0.007 0.0598,-0.0183 1.02593,-0.79505 1.1345,-0.88162 0,0 -0.0969,-0.11305 -0.0969,-0.11305 v 0 c -0.38648,-0.12419 -0.77495,-0.24237 -1.15945,-0.37259 -0.49483,-0.16759 -0.97047,-0.39792 -1.47825,-0.52073 -0.93607,-0.22642 -1.9358,-0.17678 -2.88524,-0.18436 -4.63044,0.0339 -9.25823,0.22516 -13.88543,0.3894 -6.35144,0.2405 -12.70518,0.37879 -19.05704,0.6039 -6.05142,0.38287 -12.11787,0.91392 -18.02341,2.36214 -0.9643,0.27182 -1.93277,0.52932 -2.89292,0.81548 -4.79708,1.42974 -9.49174,3.1772 -14.24835,4.73099 -5.00413,1.64296 -10.01597,3.26128 -14.92998,5.16352 -1.66528,0.66241 -3.28652,1.36408 -4.897,2.15028 -0.20577,0.10045 -2.08169,1.02375 -2.36876,1.18209 -0.26608,0.14677 -0.5174,0.31884 -0.77609,0.47826 -0.37865,0.26822 -0.73617,0.50453 -1.08433,0.80928 -0.39877,0.34906 -0.71254,0.80312 -1.22167,1.00922 0,0 0.96337,1.0051 0.96337,1.0051 z" />
    <path
       style="opacity:0.998;fill:#333333;stroke-width:1.4427;paint-order:stroke markers fill;stop-color:#000000"
       id="path843"
       d="m 315.13823,240.82181 c 0.0732,-0.0391 0.1464,-0.0782 0.21959,-0.11727 0,0 -0.0947,-0.11486 -0.0947,-0.11486 v 0 c -0.1729,-0.0821 -0.34581,-0.1642 -0.51871,-0.2463 0,0 0.39384,0.47843 0.39384,0.47843 z" />
    <path
       style="opacity:0.998;fill:#333333;stroke-width:1.4427;paint-order:stroke markers fill;stop-color:#000000"
       id="path847"
       d="m 240.34589,231.85517 c 1.8989,0.0861 3.77998,0.39331 5.66266,0.63997 3.65394,0.5191 7.26977,1.26996 10.90295,1.91512 4.64429,0.89382 9.19917,2.18435 13.718,3.56667 4.4665,1.43972 8.9728,2.75078 13.45203,4.1495 3.95195,1.29106 7.93094,2.49238 11.92912,3.63109 3.06366,0.80687 6.0769,1.78361 9.10768,2.70102 1.03219,-0.12699 0.50497,-0.14437 1.58046,0.081 0,0 -0.092,-0.11703 -0.092,-0.11703 v 0 c -1.82812,-1.04721 -0.85272,-0.46792 -2.917,-1.75321 -0.44546,-0.16936 -0.88622,-0.3517 -1.3364,-0.5081 -2.54951,-0.88569 -5.19845,-1.44911 -7.78895,-2.19426 -3.95957,-1.10022 -7.91564,-2.21548 -11.81932,-3.50332 -4.47083,-1.35354 -8.96057,-2.64469 -13.40365,-4.08875 -1.4268,-0.43572 -3.1711,-0.97911 -4.60969,-1.37577 -2.20186,-0.60712 -4.42666,-1.08989 -6.66967,-1.51621 -0.75093,-0.14274 -1.50364,-0.27603 -2.25546,-0.41405 -3.58581,-0.65612 -7.18022,-1.28132 -10.79327,-1.7684 -1.88047,-0.2182 -3.76435,-0.44476 -5.65046,-0.59459 0,0 0.98299,1.14926 0.98299,1.14926 z" />
    <path
       style="opacity:0.998;fill:#333333;stroke-width:1.4427;paint-order:stroke markers fill;stop-color:#000000"
       id="path849"
       d="m 215.0362,274.66753 c -1.5298,0.18125 -3.03366,0.50935 -4.53355,0.85293 -2.67396,0.68132 -5.35068,1.34787 -8.04398,1.94868 -3.17245,0.71145 -6.39667,1.15827 -9.61407,1.61048 -3.80648,0.46994 -7.54965,1.31437 -11.29177,2.13555 -3.84845,0.8741 -7.66471,1.88734 -11.48061,2.89324 -3.66002,0.99732 -7.3251,2.00601 -10.91013,3.24973 -0.57704,0.23492 -1.15408,0.46983 -1.73112,0.70475 -0.55047,0.2718 -1.08783,0.57197 -1.65143,0.81537 -0.5931,0.25614 -1.20962,0.45426 -1.81443,0.68139 0,0 0.10051,0.10982 0.10051,0.10982 v 0 c 0.61989,-0.21053 1.22885,-0.45647 1.85966,-0.63158 1.29189,-0.35864 2.64279,-0.48188 3.91162,-0.93672 3.69573,-1.04784 7.37831,-2.1431 11.12479,-3.0025 3.83887,-0.94679 7.65895,-1.97013 11.51443,-2.84967 3.76106,-0.86572 7.53804,-1.66564 11.3906,-2.00288 3.26682,-0.37358 6.52662,-0.79561 9.7454,-1.48371 2.71163,-0.57738 5.41551,-1.17844 8.09475,-1.89349 1.66511,-0.36665 3.19519,-0.66226 4.90284,-0.39407 0,0 -1.57351,-1.80732 -1.57351,-1.80732 z" />
    <path
       style="opacity:0.998;fill:#333333;stroke-width:1.4427;paint-order:stroke markers fill;stop-color:#000000"
       id="path851"
       d="m 133.62913,296.91268 c -0.70755,0.24036 -1.46183,0.26734 -2.18716,0.42416 -0.27857,0.0602 -0.54841,0.15593 -0.8254,0.22309 -0.88339,0.21421 -0.81432,0.17776 -1.7286,0.28574 -1.3038,0.11581 -2.61641,0.18369 -3.91072,0.38877 -0.53069,0.084 -1.05599,0.19921 -1.58426,0.29732 -0.45068,0.0674 -0.89159,0.17155 -1.34383,0.22533 -0.0604,0.008 -0.22498,-0.0207 -0.18124,0.0216 2.05668,1.98795 1.2626,2.16096 2.56923,1.57603 1.48888,-0.57688 2.79828,-1.49591 4.16243,-2.30598 1.51247,-0.89814 1.52362,-0.88075 3.11904,-1.73572 3.97073,-1.95722 8.07994,-3.65061 12.25853,-5.11303 1.04105,-0.36435 2.09465,-0.69183 3.14196,-1.03774 6.97632,-2.05581 14.01069,-3.9142 21.09814,-5.54525 7.0768,-1.61453 14.27734,-2.5462 21.45902,-3.54219 5.70545,-0.748 11.38428,-1.67803 17.09076,-2.41765 3.77901,-0.50555 7.58256,-0.75304 11.39292,-0.80595 0.7419,-0.0868 1.49554,0.0964 2.23836,0.0258 0.20559,-0.0195 0.47824,0.008 0.59836,-0.16068 0.16909,-0.23646 -0.16649,-1.15911 -0.21895,-1.3372 0,0 -0.0967,-0.11315 -0.0967,-0.11315 v 0 c -0.48375,-0.34282 -1.53525,-1.1233 -2.06837,-1.34958 -0.9594,-0.40719 -2.08615,-0.0883 -3.07513,-0.11189 -3.71679,0.2375 -7.43216,0.58269 -11.10767,1.19506 -5.6067,0.91071 -11.21349,1.82032 -16.82114,2.72506 -7.07117,1.10776 -14.12245,2.35376 -21.09312,3.99054 -7.06802,1.69129 -14.14876,3.36442 -21.06557,5.61402 -5.28157,1.72774 -10.57094,3.50542 -15.4994,6.11045 -1.88335,1.02936 -3.74747,2.092 -5.61568,3.14843 -0.31176,0.17631 -0.61434,0.36916 -0.93144,0.53569 -0.23156,0.12159 -0.47525,0.21854 -0.71288,0.3278 -1.31271,0.39318 -0.60233,0.007 1.03918,2.0709 0.033,0.0415 -0.1213,-0.0533 -0.11826,-0.10618 0.005,-0.0804 0.0778,-0.14395 0.13585,-0.19973 0.13105,-0.12587 0.60954,-0.41601 0.72799,-0.49112 1.60015,-0.72392 3.35326,-1.005 5.09894,-1.0926 0.90713,-0.0793 1.86808,-0.0976 2.75843,-0.30196 0.48171,-0.11055 0.96388,-0.34481 1.4299,-0.50596 0.17883,-0.0619 0.36238,-0.10913 0.54358,-0.1637 0,0 -0.67706,-0.74852 -0.67706,-0.74852 z" />
    <path
       style="opacity:0.998;fill:#333333;stroke-width:1.4427;paint-order:stroke markers fill;stop-color:#000000"
       id="path853"
       d="m 225.32717,277.85188 c 0.16746,0.0331 0.33305,0.0776 0.50237,0.0992 0.87031,0.11083 1.75885,0.0556 2.63168,0.0279 1.92566,-0.0614 0.48144,-0.0234 2.60996,-0.072 3.56924,-0.17421 7.1405,-0.17286 10.71074,-0.049 4.44467,0.13569 8.87521,0.48556 13.2863,1.03961 3.29544,0.49716 6.59786,0.96956 9.87161,1.59868 1.74829,0.33598 3.2366,0.67038 4.97552,1.04829 4.7871,1.04972 9.5835,2.04619 14.34326,3.21651 3.37539,0.89891 6.71067,1.93696 10.06968,2.89282 0.21951,0.054 2.7865,0.85131 2.87841,0.58903 0.0727,-0.20757 -0.45387,-1.19031 -0.49412,-1.27354 0,0 -0.0932,-0.1161 -0.0932,-0.1161 v 0 c -0.48658,-0.45876 -1.36285,-1.32053 -1.91791,-1.70116 -0.91515,-0.62755 -2.13109,-0.60107 -3.15274,-0.92413 -3.12294,-0.71762 -6.24391,-1.456 -9.39476,-2.04057 -4.69279,-0.8764 -9.38188,-1.7703 -14.03585,-2.83828 -4.85196,-1.00008 -9.74248,-1.79134 -14.66132,-2.38593 -4.45262,-0.54152 -8.91763,-0.98052 -13.40255,-1.14077 -3.5435,-0.0965 -7.08905,-0.0942 -10.62593,0.18006 -1.87973,0.14465 -3.79774,0.32345 -5.65747,-0.0922 0,0 1.5563,1.94163 1.5563,1.94163 z" />
    <path
       style="opacity:0.998;fill:#333333;stroke-width:1.4427;paint-order:stroke markers fill;stop-color:#000000"
       id="path855"
       d="m 302.80643,248.81502 c 0.0638,-0.0866 0.12764,-0.17329 0.19147,-0.25994 0,0 -0.10644,-0.10408 -0.10644,-0.10408 v 0 c -0.0699,0.0808 -0.13982,0.16172 -0.20974,0.24258 0,0 0.12471,0.12144 0.12471,0.12144 z" />
    <path
       style="opacity:0.998;fill:#333333;stroke-width:1.4427;paint-order:stroke markers fill;stop-color:#000000"
       id="path857"
       d="m 304.6007,247.61449 c 1.55878,0.0716 3.06081,0.43257 4.55723,0.84804 1.80009,0.46873 3.53272,1.15152 5.26788,1.81371 0.76235,0.29722 1.5085,0.63266 2.26766,0.93715 0.22556,-0.0847 -0.18263,-0.32722 -0.25551,-0.49555 0,0 -0.0919,-0.1171 -0.0919,-0.1171 v 0 c -0.22601,-0.21996 -0.38597,-0.50854 -0.66302,-0.66961 -0.71586,-0.30863 -1.45024,-0.56809 -2.18687,-0.82343 -1.67706,-0.57606 -3.37521,-1.08988 -5.08384,-1.56377 -1.46701,-0.34122 -2.95951,-0.65697 -4.46891,-0.70675 0,0 0.65731,0.77731 0.65731,0.77731 z" />
    <path
       style="opacity:0.998;fill:#333333;stroke-width:1.4427;paint-order:stroke markers fill;stop-color:#000000"
       id="path923"
       d="m 150.54188,279.39723 c -2.12946,-0.51991 -3.95419,-1.80762 -6.14784,-2.15561 -0.6628,-0.10515 -1.33856,-0.0984 -2.00784,-0.14757 -0.82381,0.002 -1.64774,0.0194 -2.47144,0.006 -3.84022,-0.0644 -3.59343,-0.30619 -7.53002,0.2489 -1.54062,0.21724 -6.43483,1.28467 -7.94096,1.57379 -1.33394,0.25605 -2.6744,0.47688 -4.01161,0.71533 -6.95119,1.112 -13.92078,2.11157 -20.889329,3.10916 -0.602961,0.0804 -1.204858,0.16911 -1.808884,0.24102 -0.614295,0.0731 -1.591019,0.169 -2.251898,0.18651 -0.152195,0.004 -0.551842,-0.13586 -0.456433,-0.0172 3.030483,3.76884 1.762241,3.61846 4.036006,3.57078 3.515468,-0.30474 7.020568,-0.23324 10.528868,0.0907 6.77133,0.73765 13.56695,0.6508 20.3631,0.49021 4.14951,-0.17167 8.31363,-0.13399 12.45656,-0.46131 1.34708,-0.10644 2.7135,-0.13424 4.03003,-0.43875 1.07359,-0.24832 2.04201,-0.83057 3.07825,-1.20537 0.93146,-0.33692 1.88174,-0.61932 2.82259,-0.92899 0,0 -0.19552,-0.22454 -0.19552,-0.22454 v 0 c -1.29147,-0.0955 -2.58733,-0.14363 -3.87442,-0.28653 -1.5687,-0.17416 -3.11394,-0.55088 -4.68822,-0.66416 -1.4605,-0.1051 -2.92881,-0.0167 -4.39283,0.0107 -4.15012,0.0777 -8.29383,0.37743 -12.44389,0.46043 -6.7147,0.14129 -13.43648,0.13084 -20.14237,-0.28939 -3.51875,-0.0701 -7.03884,9.4e-4 -10.554381,-0.12587 -2.064024,-0.32064 -1.1092,-0.32314 2.12094,3.31188 0.06299,0.0709 -0.07114,-0.22192 1.07e-4,-0.28451 0.237194,-0.20841 1.700994,-0.65488 1.796175,-0.68346 0.537019,-0.16128 1.080419,-0.30049 1.620629,-0.45074 6.60497,-1.69094 13.2733,-3.18869 20.04318,-4.04905 1.39721,-0.17039 2.7926,-0.35625 4.1916,-0.51115 1.40289,-0.15534 7.10073,-0.68668 8.54469,-0.87655 1.23396,-0.16224 2.45944,-0.38416 3.68611,-0.59452 1.00662,-0.17264 1.99319,-0.50588 3.01335,-0.5544 0.89836,-0.0427 1.78879,0.189 2.6832,0.28349 2.74998,0.70054 5.49028,1.45564 8.18202,2.35705 0,0 -1.38952,-1.70584 -1.38952,-1.70584 z" />
    <path
       style="opacity:0.998;fill:#333333;stroke-width:1.4427;paint-order:stroke markers fill;stop-color:#000000"
       id="path929"
       d="m 49.988316,333.9577 c 3.585346,-3.87491 8.201133,-6.84718 12.55801,-9.77043 1.441675,-0.87847 2.865161,-1.7875 4.325025,-2.63541 3.035676,-1.76313 7.307145,-4.01717 10.375147,-5.63087 3.263222,-1.71641 9.674567,-5.0597 12.854269,-6.58645 2.500681,-1.20071 5.044303,-2.30985 7.566453,-3.46475 7.52046,-3.12763 8.85913,-3.74691 16.59436,-6.70206 2.88281,-1.10135 5.74458,-2.2673 8.67844,-3.22438 2.77723,-0.90598 5.62671,-1.57333 8.44008,-2.36001 0,0 -0.19947,-0.22105 -0.19947,-0.22105 v 0 c -2.81359,0.78688 -5.6191,1.60319 -8.44075,2.36061 -3.12792,0.83964 -6.2981,1.52314 -9.4071,2.43033 -7.9617,2.32318 -9.56132,3.16699 -17.091552,6.18165 -5.051499,2.17321 -9.864744,4.18564 -14.828105,6.54183 -7.149398,3.39394 -14.099666,7.21039 -20.995623,11.08575 -4.620536,2.7652 -9.316339,5.4823 -13.250375,9.20799 0,0 2.821191,2.78725 2.821191,2.78725 z" />
    <path
       style="opacity:0.998;fill:#333333;stroke-width:1.4427;paint-order:stroke markers fill;stop-color:#000000"
       id="path931"
       d="m 76.825517,310.42621 c 2.301721,-2.05711 4.135565,-4.55567 6.082449,-6.93658 3.889594,-5.26016 7.687178,-10.59573 11.845975,-15.65051 1.157476,-1.40685 2.360027,-2.776 3.540035,-4.16398 6.660004,-7.67204 13.998444,-14.73588 21.813684,-21.22264 1.4575,-1.20976 2.95333,-2.37259 4.43,-3.55888 5.05482,-4.03369 10.48555,-7.57938 16.39517,-10.21902 0.26673,-0.0241 0.55215,-0.17316 0.80017,-0.0722 0.18792,0.0765 0.46548,0.65395 0.30958,0.52409 -1.45578,-1.21264 -2.5863,-2.85667 -4.23358,-3.79274 -0.40321,-0.22913 0.0597,0.93045 0.008,1.39126 -0.16599,1.46429 -0.62883,2.69241 -1.06437,4.0983 -2.21255,7.12287 -6.47167,13.28401 -10.47023,19.49069 -3.64671,5.66204 -8.11077,10.71345 -12.29921,15.9655 -8.89246,11.15058 2.43793,-2.91336 -6.20771,7.79249 -3.53843,4.75214 -1.68865,2.54657 -5.50919,6.65023 0,0 0.20951,0.21156 0.20951,0.21156 v 0 c 4.494,-3.44164 2.10206,-1.77929 7.20466,-4.94533 2.70255,-1.93187 5.51147,-3.83483 8.00091,-6.04742 5.05316,-4.49115 8.90447,-10.11889 12.85952,-15.54624 4.02826,-6.2518 7.78158,-12.68916 10.54403,-19.61641 0.56057,-1.48567 0.98445,-2.48429 1.38879,-3.99224 0.12564,-0.46858 0.5601,-1.01522 0.29931,-1.42428 -1.27472,-1.99944 -2.99655,-3.68307 -4.64322,-5.38928 -0.15318,-0.15871 -0.43687,-0.13746 -0.65417,-0.0996 -0.27771,0.0484 -0.51391,0.23185 -0.77087,0.34778 -1.61583,1.1909 -3.08662,2.50727 -4.62884,3.79152 -3.3449,2.78538 -6.82817,5.40267 -10.14072,8.22791 -9.20383,7.78664 -18.22107,15.84026 -26.3152,24.79565 -1.979626,2.19605 -5.022215,5.53402 -6.961865,7.82536 -3.137876,3.70679 -6.105312,7.56676 -9.042972,11.43194 -1.705268,2.56164 -3.548347,5.0039 -5.698487,7.21379 0,0 2.909366,2.91926 2.909366,2.91926 z" />
    <path
       style="opacity:0.998;fill:#333333;stroke-width:1.4427;paint-order:stroke markers fill;stop-color:#000000"
       id="path939"
       d="m 240.03911,235.11317 c 2.88992,-1.1941 5.88641,-2.21232 8.98616,-2.69616 0.84611,-0.13206 1.70198,-0.19134 2.55296,-0.28701 4.29272,-0.16511 8.60265,-0.21816 12.89435,0.0212 2.70124,0.15063 5.86815,0.46863 8.54554,0.71519 8.90452,0.65831 17.69761,2.20445 26.52057,3.49758 5.50244,0.64157 10.99194,1.43749 16.35044,2.8639 0.31363,0.0822 0.61776,0.21986 0.94088,0.24644 0.25876,0.0213 0.48944,-0.16041 0.3751,-0.428 -0.0396,-0.0926 -0.15823,-0.12597 -0.22715,-0.19948 -0.87527,-0.93352 -1.63403,-1.98622 -2.60434,-2.82051 -0.11518,-0.099 -0.13298,0.27316 -0.19947,0.40975 -0.22445,0.84799 0.0497,0.62693 -0.86842,0.60166 0,0 0.19109,0.22833 0.19109,0.22833 v 0 c 1.29567,0.21368 0.56336,9.2e-4 2.11904,0.86186 0.32633,0.14099 1.1125,0.75239 0.97897,0.42296 -0.62975,-1.55358 -2.23194,-3.62105 -3.99389,-4.26825 -0.29323,-0.10771 -0.6112,-0.12945 -0.91682,-0.19419 -5.18231,-0.81785 -10.40463,-1.32561 -15.61874,-1.89289 -8.60184,-0.83388 -17.20598,-1.63172 -25.79427,-2.60172 -4.55939,-0.36086 -4.04865,-0.35893 -8.44432,-0.56428 -4.17572,-0.19507 -8.39988,-0.46616 -12.50084,0.55333 -3.89368,0.93595 -7.75444,2.00112 -11.65127,2.92204 0,0 2.36443,2.60827 2.36443,2.60827 z" />
    <path
       style="opacity:0.998;fill:#333333;stroke-width:1.4427;paint-order:stroke markers fill;stop-color:#000000"
       id="path943"
       d="m 237.22427,226.89785 c -1.35612,1.78438 -2.59712,3.66327 -3.77795,5.56868 -1.31342,2.12022 -2.61251,4.25505 -3.60572,6.54978 -0.63254,1.46144 -1.01497,2.66668 -1.53414,4.17319 -1.55449,4.3744 -2.61219,8.89072 -3.52653,13.43435 -0.37934,3.05658 -1.29558,6.18412 -0.97554,9.29527 0.23687,2.30257 0.6985,2.95033 1.59237,5.15274 0.20652,0.68555 0.41303,1.37109 0.61954,2.05663 0,0 0.22849,0.1909 0.22849,0.1909 v 0 c 0.0842,-0.43962 0.16841,-0.87926 0.25262,-1.31889 0.29429,-0.33841 0.66609,-0.62263 0.88289,-1.01522 0.55304,-1.00139 0.66341,-2.42317 0.80805,-3.4995 0.31079,-2.31258 0.55235,-4.63661 1.02393,-6.92516 0.88706,-4.62964 1.84312,-9.25215 2.98694,-13.82516 1.21001,-3.81433 2.70626,-7.55794 4.54831,-11.11169 0.87141,-1.35832 0.67395,-1.1021 1.5973,-2.34953 0.63422,-0.85679 1.38019,-1.68366 1.88722,-2.62832 0.11277,-0.21012 0.18306,-0.4404 0.27459,-0.6606 0,0 -3.28237,-3.08747 -3.28237,-3.08747 z" />
    <path
       style="opacity:0.998;fill:#333333;stroke-width:1.4427;paint-order:stroke markers fill;stop-color:#000000"
       id="path947"
       d="m 239.06819,230.185 c 1.24943,-1.11612 0.43855,-0.72107 2.6292,-0.64007 0,0 -0.19219,-0.2274 -0.19219,-0.2274 v 0 c -2.62623,-0.17281 -1.29714,0.1015 -3.96548,-0.92214 0,0 1.52847,1.78961 1.52847,1.78961 z" />
    <path
       style="opacity:0.998;fill:#333333;stroke-width:1.4427;paint-order:stroke markers fill;stop-color:#000000"
       id="path949"
       d="m 151.6199,276.25797 c 2.24273,-0.11302 4.48951,-0.15338 6.73492,-0.13623 1.53786,-0.40504 0.22319,0.21187 0.62116,-1.24855 0.043,-0.15782 0.31245,-0.0969 0.46868,-0.14531 0,0 -0.19357,-0.22623 -0.19357,-0.22623 v 0 c -0.23621,-0.0449 -0.49329,-0.0279 -0.70861,-0.13486 -2.71747,-1.35059 -0.55962,-0.85665 -2.72512,-1.20598 -2.21323,0.0932 -4.43073,0.10662 -6.63905,0.29436 0,0 2.44159,2.8028 2.44159,2.8028 z" />
    <path
       style="opacity:0.998;fill:#333333;stroke-width:1.4427;paint-order:stroke markers fill;stop-color:#000000"
       id="path951"
       d="m 143.34685,276.99846 c 2.71835,0.95219 5.5407,1.50428 8.38462,1.91029 2.76994,0.29361 5.54186,0.4762 8.24967,1.15753 0.1976,0.10622 0.42267,0.17242 0.59281,0.31863 0.16606,0.14269 0.5534,0.67483 0.39164,0.52729 -1.35151,-1.23275 -2.56337,-2.61921 -3.9688,-3.79011 -0.23598,-0.19662 0.2427,0.56766 0.41008,0.82523 0.39391,0.60617 0.86792,1.15728 1.26906,1.75871 0.36272,0.54381 0.68052,1.11628 1.02078,1.67441 0,0 0.22633,0.19346 0.22633,0.19346 v 0 c 0.34245,0.01 0.68502,0.0161 1.02735,0.0295 0.3568,0.0139 0.77168,0.2488 1.06992,0.0524 0.19996,-0.13165 0.0891,-0.5304 -0.0628,-0.71549 -1.1947,-1.45631 -3.26816,-4.95497 -5.85514,-5.57169 -2.53906,-0.19097 -5.11195,0.0365 -7.63878,-0.39929 -2.82183,-0.41379 -5.56522,-1.09217 -8.30355,-1.87655 0,0 3.18681,3.90568 3.18681,3.90568 z" />
    <path
       style="opacity:0.998;fill:#333333;stroke-width:1.4427;paint-order:stroke markers fill;stop-color:#000000"
       id="path953"
       d="m 169.49646,280.01885 c 3.76197,-2.65436 7.86133,-4.77636 11.90388,-6.96214 7.06249,-3.71281 14.08461,-7.49324 21.25981,-10.9858 4.22441,-2.04038 8.38171,-4.23773 12.83394,-5.74738 0.98042,-0.37947 2.02335,-0.4875 3.04262,-0.6913 -0.77728,-1.32013 -0.73182,-1.2622 -3.12671,-3.19109 -0.13005,-0.10475 -0.26522,0.20427 -0.40863,0.28983 -1.01698,0.60675 -2.11213,1.11099 -3.15321,1.67449 -0.48609,0.34714 -0.9818,0.68119 -1.45827,1.04143 -1.80448,1.3643 -1.86693,1.70899 -4.15125,2.72552 -5.74759,2.55768 -1.04567,-0.23823 -6.96485,2.70176 -1.20047,0.59627 -2.32046,1.34242 -3.48069,2.01363 -6.90029,4.12561 -13.2948,9.01937 -19.76456,13.77456 -2.05835,1.1558 -3.81718,2.74779 -5.78719,4.03052 -0.75871,0.49402 -1.56605,0.90915 -2.35532,1.35275 -1.17796,0.66205 -2.04695,1.22636 -3.34768,1.54864 -0.36694,0.0909 -0.75252,0.0733 -1.12878,0.10995 -0.19535,-0.10906 -0.77163,-0.45214 -0.58604,-0.32718 0.66788,0.4497 1.23999,1.17093 2.03438,1.30237 0.4249,0.0703 0.67773,-0.5316 1.01643,-0.79761 2.22435,-1.74686 4.50612,-3.32213 6.87098,-4.8768 5.29429,-3.33323 10.72075,-6.47592 16.34804,-9.21695 3.82303,-1.86219 6.13347,-2.81124 10.04287,-4.50519 4.82238,-2.32165 10.03265,-3.733 14.87055,-6.01336 6.49747,-3.06262 0.45465,-0.99881 6.7202,-2.88284 0,0 -0.1999,-0.22067 -0.1999,-0.22067 v 0 c -11.57216,3.48117 7.10515,-1.99011 -7.76925,1.74166 -5.23804,1.31415 -10.05383,3.90503 -15.0731,5.81212 -9.08633,4.08 -17.99055,8.53912 -26.61576,13.52933 -2.43567,1.41446 -5.0823,2.73248 -7.29064,4.50819 -0.35321,0.28401 -1.0338,0.49453 -0.97823,0.94435 0.4674,3.78383 0.98735,2.8577 1.55637,2.02927 1.20066,-1.09177 2.30795,-1.6674 3.73446,-2.46927 0.78943,-0.44375 1.55685,-0.92682 2.35579,-1.35318 6.27653,-3.34947 -0.31572,0.47448 6.31703,-3.48124 1.1704,-0.7053 2.35869,-1.38175 3.51122,-2.11589 1.12561,-0.717 2.212,-1.49382 3.32106,-2.23616 4.47191,-2.99318 8.96728,-5.956 13.58023,-8.72883 5.28264,-2.99597 1.70152,-0.90387 6.63881,-3.93379 0.95735,-0.5875 1.86411,-1.2712 2.88199,-1.74616 2.38262,-1.1118 4.95011,-1.17769 7.46115,-1.76838 1.19395,-0.39654 2.35744,-0.86299 3.54686,-1.26786 0.17567,-0.0598 0.63609,0.006 0.53588,-0.15094 -1.6466,-2.56627 -1.57731,-2.50278 -2.84879,-3.33545 -0.90706,0.31781 -1.72404,0.90724 -2.6421,1.20498 -4.16367,1.95628 -8.15351,4.24034 -12.12344,6.56066 -6.92414,3.85716 -13.9687,7.49484 -20.85937,11.4134 -4.15534,2.14445 -8.38411,4.14076 -12.51928,6.32491 0,0 2.24849,2.37114 2.24849,2.37114 z" />
    <path
       style="opacity:0.998;fill:#333333;stroke-width:1.4427;paint-order:stroke markers fill;stop-color:#000000"
       id="path955"
       d="m 221.72997,257.0676 c 0.26204,-0.0352 0.52254,-0.0848 0.78612,-0.10561 1.56868,-0.12382 3.07933,-0.0881 4.64362,-0.36726 1.68786,-0.3012 3.8621,-0.89888 5.4769,-1.31355 6.5306,-1.7043 13.21173,-2.81844 19.94705,-3.27711 1.63783,-0.11153 3.2796,-0.15491 4.9194,-0.23238 8.8126,-0.11039 17.68828,-0.44244 26.46411,0.60369 1.71468,0.2044 3.4135,0.52495 5.12024,0.78741 3.89429,0.87718 5.32506,1.13267 9.10246,2.23699 1.36033,0.39769 2.68894,0.89959 4.05116,1.29078 1.07316,0.30817 2.13708,0.73181 3.25113,0.80622 0.63661,0.0425 1.22563,-0.37132 1.85675,-0.46505 0.58094,-0.0863 1.17364,-0.0482 1.76046,-0.0721 0,0 -0.19426,-0.22563 -0.19426,-0.22563 v 0 c -3.1187,0.12038 -0.95461,0.29053 -5.1681,-1.41222 -2.54167,-1.02714 -5.32591,-1.97152 -7.91326,-2.85079 -6.02387,-2.0471 -3.40044,-1.27651 -9.56733,-2.7112 -1.70224,-0.24268 -3.39794,-0.53704 -5.10677,-0.72804 -3.49661,-0.39081 -7.32601,-0.5666 -10.83768,-0.6864 -5.20378,-0.17751 -10.41314,-0.18703 -15.60902,0.20481 -4.15375,0.37967 -5.04249,0.39847 -9.06509,0.99832 -5.18894,0.77377 -10.29951,1.96214 -15.43509,3.01581 -1.0706,0.19649 -2.14119,0.39299 -3.21178,0.58948 -0.84048,0.135 -1.68338,0.25551 -2.5214,0.40501 -1.39619,0.24909 -2.73079,0.68362 -4.11856,0.94618 -0.26277,0.0497 -0.53039,0.069 -0.79559,0.10348 0,0 2.16453,2.45923 2.16453,2.45923 z" />
    <path
       style="opacity:0.998;fill:#333333;stroke-width:1.4427;paint-order:stroke markers fill;stop-color:#000000"
       id="path959"
       d="m 292.36775,249.71413 c -0.55288,0.55496 -0.84205,0.83524 -1.40622,1.45689 -1.39844,1.54091 -1.13212,1.3765 -2.75531,2.97437 -1.03488,1.01873 -3.46646,3.22248 -4.43954,4.11275 -5.15898,4.84932 -11.12633,8.70624 -17.68773,11.37384 -1.54119,0.62659 -3.12739,1.13619 -4.69109,1.7043 -4.26761,1.41272 -8.69244,2.33919 -13.15489,2.86696 -2.37633,0.28104 -3.67403,0.0327 -5.82346,0.89431 -0.51601,0.20684 -0.93789,0.59712 -1.40683,0.89568 0,0 0.19051,0.22883 0.19051,0.22883 v 0 c 2.79037,1.22333 4.06031,2.02003 7.13919,2.40321 1.257,0.15643 2.53407,0.0873 3.79991,0.0402 4.77833,-0.17749 8.99271,-1.15164 13.50937,-2.70476 1.5338,-0.62663 3.09856,-1.18226 4.60141,-1.87987 6.41297,-2.97689 12.21262,-7.15579 17.47402,-11.83978 2.97161,-2.75555 6.11073,-5.43731 8.55767,-8.68563 0,0 -3.90701,-3.84134 -3.90701,-3.84134 z" />
    <path
       style="opacity:0.998;fill:#333333;stroke-width:1.4427;paint-order:stroke markers fill;stop-color:#000000"
       id="path961"
       d="m 229.07146,260.52975 c 4.42421,2.12108 8.39872,4.97343 12.34819,7.85357 3.09409,2.30434 6.34789,4.39285 9.77107,6.17549 2.00331,1.04325 4.58109,2.26764 6.75897,2.92892 1.07737,0.32714 2.19769,0.49101 3.29653,0.73651 3.36619,0.42809 6.66466,0.008 9.69606,-1.59482 0.93991,-0.49704 1.75375,-1.20261 2.63064,-1.80391 0,0 -0.19878,-0.22167 -0.19878,-0.22167 v 0 c -5.43873,-0.12311 -10.97057,0.0398 -16.25121,-1.48646 -1.19571,-0.40487 -2.40592,-0.76914 -3.58709,-1.21461 -5.78052,-2.18006 -11.12197,-5.36515 -16.16524,-8.90025 -3.9163,-2.70316 -7.798,-5.48708 -12.12992,-7.50223 0,0 3.83078,5.02946 3.83078,5.02946 z" />
    <path
       style="opacity:0.998;fill:#333333;stroke-width:1.4427;paint-order:stroke markers fill;stop-color:#000000"
       id="path963"
       d="m 235.46385,255.30883 c 0.64854,-0.0538 1.34879,-1.21101 1.93158,-1.30061 0.20517,-0.0315 0.42958,0.0836 0.58005,0.2265 0.19435,0.18466 0.60549,0.86685 0.3954,0.70033 -1.25539,-0.99505 -2.38019,-2.14455 -3.5703,-3.21683 1.02406,2.9309 0.96744,6.11771 2.03208,9.04357 0.31256,0.85895 0.75601,1.66446 1.13401,2.49669 0.52629,0.78824 0.99194,1.62053 1.57886,2.36472 0.59129,0.74972 1.25247,1.44558 1.9448,2.10315 3.53667,3.35902 5.37909,5.95437 9.45603,7.59362 2.37068,0.95319 3.69397,1.02495 6.20253,1.43481 1.07463,0.0488 2.14847,0.1728 3.22389,0.14635 4.30355,-0.1058 8.69149,-1.23962 12.41073,-3.42705 0.84601,-0.49757 1.61819,-1.11112 2.42728,-1.66669 0.67089,-0.61388 1.40122,-1.16855 2.01265,-1.84167 2.01478,-2.21806 3.2974,-5.24322 3.14578,-8.27006 -0.0318,-0.63627 -0.2043,-1.25766 -0.30646,-1.88647 -0.2297,-0.56787 -0.39374,-1.16695 -0.6891,-1.7036 -1.46238,-2.65696 -7.79062,-7.89739 -7.8686,-7.96138 -0.56567,-0.46425 -1.34525,-0.58762 -2.04907,-0.78798 -2.08382,-0.59323 -3.01357,-0.52637 -5.20088,-0.66312 -4.54422,0.166 -9.07704,0.78556 -13.5069,1.81386 -1.12557,0.26128 -2.25828,0.50916 -3.35393,0.87614 -1.01363,0.33951 -1.97219,0.82541 -2.95829,1.23811 -3.07204,1.58796 -3.40715,2.69711 -4.74027,5.64662 0,0 0.2054,0.21555 0.2054,0.21555 v 0 c 2.97521,-0.16526 5.98729,-0.13339 8.83692,-1.14803 1.44778,-0.3908 5.10803,-1.39599 6.55203,-1.71551 4.455,-0.98576 9.03385,-1.53869 13.59901,-1.40048 2.14948,0.25628 3.15554,0.23462 5.16506,1.00013 0.69054,0.26306 2.35372,1.63728 1.97794,1.00103 -0.95799,-1.62197 -2.54157,-2.78137 -3.83714,-4.14888 -0.40708,-0.42968 0.83785,0.84558 1.17106,1.33477 0.33885,0.49749 0.55355,1.06904 0.83034,1.60356 0.42241,1.57044 0.71814,2.20259 0.64107,3.87779 -0.10345,2.24893 -1.03704,4.49105 -2.43577,6.23884 -0.54685,0.68332 -1.22589,1.24944 -1.83884,1.87416 -0.76095,0.5597 -1.48021,1.18105 -2.28288,1.6791 -4.55184,2.82435 -9.95616,3.6477 -15.21687,3.11829 -2.6335,-0.49965 -3.62696,-0.52929 -6.09,-1.62241 -0.87973,-0.39043 -2.35674,-2.35147 -2.52334,-1.40353 -0.20746,1.18048 1.87142,1.65289 2.2816,2.77909 0.6397,1.75639 -4.67384,-5.57978 -3.62465,-4.2789 -0.38292,-0.79 -0.83038,-1.55184 -1.14875,-2.36997 -1.19744,-3.07721 -1.25712,-6.48042 -2.46714,-9.55211 -1.48696,-1.64363 -2.896,-3.36127 -4.46091,-4.9309 -0.12914,-0.12953 -0.37138,-0.15339 -0.54178,-0.0869 -0.58285,0.22737 -1.10326,2.18167 -1.33162,2.71492 0,0 2.30739,2.2614 2.30739,2.2614 z" />
    <path
       style="opacity:0.998;fill:#333333;stroke-width:1.4427;paint-order:stroke markers fill;stop-color:#000000"
       id="path965"
       d="m 273.42297,267.19071 c -0.67536,0.67017 -1.54434,1.11458 -2.22298,1.77761 -0.63827,0.62359 -1.14019,1.37567 -1.76525,2.0125 -0.79353,0.80848 -1.65682,1.54539 -2.48523,2.31809 0,0 0.20566,0.2153 0.20566,0.2153 v 0 c 1.13759,-0.45018 2.26387,-0.93005 3.41276,-1.35055 0.92639,-0.33907 1.89918,-0.54947 2.8105,-0.92717 0.52592,-0.21797 1.92931,-1.08645 2.57536,-1.47901 0,0 -2.53082,-2.56677 -2.53082,-2.56677 z" />
    <path
       style="opacity:0.998;fill:#333333;stroke-width:1.4427;paint-order:stroke markers fill;stop-color:#000000"
       id="path967"
       d="m 231.09074,254.54147 c 2.47944,3.1044 4.84641,6.29046 7.40597,9.33097 3.3627,3.77542 6.98038,7.32911 10.62275,10.82919 1.07296,1.03102 2.87553,2.50057 4.12353,3.35834 0.62836,0.4319 1.29827,0.79998 1.94742,1.19997 1.04549,0.54215 4.9277,2.48562 5.90833,0.80308 0.22673,-0.38901 0.12987,-0.89109 0.19481,-1.33664 0,0 -0.19386,-0.22597 -0.19386,-0.22597 v 0 c -0.78972,-0.42685 -1.56587,-0.8798 -2.36916,-1.28053 -2.53913,-1.26671 -5.25757,-2.14182 -7.75636,-3.4925 -1.84339,-1.15956 -1.99699,-1.17965 -3.74179,-2.60879 -0.6854,-0.56143 -2.44446,-2.51587 -2.00223,-1.74813 0.5922,1.02807 1.76702,1.60683 2.47097,2.56186 1.23072,1.66966 -5.63679,-6.02368 -4.33626,-4.46299 -0.61962,-0.7198 -1.25731,-1.42444 -1.85886,-2.15942 -1.92351,-2.3501 -3.57704,-4.91333 -5.55599,-7.21911 0,0 -4.85927,-3.54933 -4.85927,-3.54933 z" />
    <path
       style="opacity:0.998;fill:#333333;stroke-width:1.4427;paint-order:stroke markers fill;stop-color:#000000"
       id="path969"
       d="m 279.42505,255.13635 c -0.0933,0.26436 -0.16454,0.53758 -0.27992,0.79308 -0.32677,0.72361 -0.84861,1.53184 -1.2809,2.1793 -1.26005,1.88728 -2.63463,3.64284 -4.07832,5.39244 -2.72041,3.19452 -6.0545,5.74837 -9.21143,8.477 -0.78933,0.68224 -1.78605,1.19932 -2.33047,2.08932 -0.61726,1.00905 -0.68379,2.26477 -1.02569,3.39715 -0.78966,0.52668 -1.57933,1.05338 -2.369,1.58007 0,0 0.20518,0.21576 0.20518,0.21576 v 0 c 0.86326,-0.45074 1.72651,-0.90147 2.58977,-1.35221 1.41843,-0.0263 2.88061,0.27129 4.25532,-0.0792 1.04134,-0.2655 1.85801,-1.08544 2.7371,-1.70356 3.44864,-2.42486 6.3698,-5.52712 9.34276,-8.48616 2.3684,-2.55402 4.80408,-5.14683 5.85636,-8.55219 0,0 -4.41076,-3.95079 -4.41076,-3.95079 z" />
    <path
       style="opacity:0.998;fill:#333333;stroke-width:1.4427;paint-order:stroke markers fill;stop-color:#000000"
       id="path971"
       d="m 231.21805,255.70574 c -0.50573,-0.20549 -2.27298,-2.17329 -2.86558,-1.23347 -0.17099,0.27118 -0.20335,0.64231 -0.12611,0.95345 0.0967,0.38932 0.41268,0.688 0.61902,1.03199 4.71114,6.02504 10.19035,11.40819 15.84676,16.53937 4.24137,3.49832 8.46427,7.38379 13.27671,10.10015 0.63971,0.36108 1.32143,0.6421 1.98212,0.96316 1.55735,-0.51878 1.007,0.009 1.45422,-1.76398 0,0 -0.19206,-0.22752 -0.19206,-0.22752 v 0 c -3.59047,-2.08618 -1.83353,-1.00683 -5.27292,-3.2347 -5.51827,-3.59904 -10.78794,-7.57092 -15.72481,-11.93801 -0.82374,-0.75159 -3.02307,-3.22374 -2.47124,-2.25477 0.67538,1.18589 1.85639,2.00452 2.85715,2.93238 0.68832,0.63819 -1.28846,-1.36552 -1.91807,-2.06169 -0.72589,-0.80266 -2.22254,-2.54847 -2.96742,-3.4225 -0.35342,-0.41469 -0.7038,-0.83196 -1.0557,-1.24793 -0.22723,-0.27843 -0.40829,-0.60203 -0.68169,-0.83528 -0.18082,-0.15427 -0.80024,-0.13583 -0.64105,-0.31234 0.1725,-0.19127 0.78422,-0.12583 0.95832,-0.017 0,0 -3.07765,-3.97132 -3.07765,-3.97132 z" />
    <path
       style="opacity:0.998;fill:#333333;stroke-width:1.4427;paint-order:stroke markers fill;stop-color:#000000"
       id="path973"
       d="m 282.64773,251.55527 c -2.19091,2.14344 -3.71663,4.81938 -5.5427,7.25004 -0.65159,0.86734 -4.68816,5.82428 -5.26613,6.5365 -3.1682,5.41811 -1.4322,2.8776 -5.17157,7.6463 0,0 0.20938,0.2117 0.20938,0.2117 v 0 c 5.22834,-3.26469 2.52311,-1.68766 8.12534,-4.71447 3.48668,-3.20996 2.91067,-2.51346 5.94847,-5.93105 2.22462,-2.50276 3.96833,-4.71123 4.93622,-7.95304 0,0 -3.23901,-3.04598 -3.23901,-3.04598 z" />
    <path
       style="opacity:0.998;fill:#333333;stroke-width:1.4427;paint-order:stroke markers fill;stop-color:#000000"
       id="path975"
       d="m 252.43996,270.50649 c -3.22167,1.34834 -0.48689,0.0138 -4.13413,2.61247 -0.97238,0.69284 -2.00344,1.2994 -3.00516,1.9491 0,0 0.20044,0.22017 0.20044,0.22017 v 0 c 1.45032,-0.15388 2.89496,-0.37696 4.35096,-0.46165 10.28835,-0.59846 -0.45796,0.43283 6.20432,-0.25125 0,0 -3.61643,-4.06884 -3.61643,-4.06884 z" />
    <path
       style="opacity:0.998;fill:#333333;stroke-width:1.4427;paint-order:stroke markers fill;stop-color:#000000"
       id="path977"
       d="m 288.15205,280.82538 c -2.27935,-0.50909 -4.43495,0.58199 -6.33465,1.72218 -4.17043,3.06989 -6.46254,7.94872 -8.60925,12.51131 -2.21898,5.28334 -4.28979,10.75158 -5.05399,16.46964 -0.50991,3.81518 -0.33173,5.43903 -0.25886,9.28316 1.22885,6.89878 0.36229,3.80828 3.04843,10.87983 0.62773,1.65254 1.28256,3.29467 1.92384,4.942 0,0 0.23133,0.18747 0.23133,0.18747 v 0 c -0.11289,-1.21313 -0.31976,-2.42119 -0.33868,-3.63942 -0.0195,-1.25004 0.14934,-2.49593 0.22401,-3.74389 -0.0623,-1.48333 -0.12468,-2.96664 -0.18704,-4.44998 -0.0237,-4.00229 -0.17379,-5.04749 0.37105,-9.00911 0.7777,-5.6547 2.67755,-11.08384 5.03003,-16.25899 0.40713,-0.84578 2.61181,-5.44028 3.11941,-6.44198 0.97956,-1.9331 2.02615,-3.97765 3.52227,-5.57934 0.31486,-0.33705 0.69703,-0.60427 1.04555,-0.9064 1.19263,-0.8303 3.16786,-2.22672 4.64335,-2.41282 0.18787,-0.0237 0.37771,0.0276 0.56657,0.0414 0,0 -2.94337,-3.595 -2.94337,-3.595 z" />
    <path
       style="opacity:0.998;fill:#333333;stroke-width:1.4427;paint-order:stroke markers fill;stop-color:#000000"
       id="path979"
       d="m 282.15828,281.296 c 0.2325,3.41113 -1.23068,6.48894 -2.61915,9.50609 -0.39022,0.83759 -1.66258,3.61245 -2.11123,4.3959 -0.44435,0.77595 -0.98086,1.4954 -1.46195,2.24911 -1.47072,2.30408 -2.88437,4.63849 -4.26348,6.99812 -2.37914,4.5259 -3.28718,9.6846 -3.19873,14.77154 0.0184,1.06001 0.13098,2.1163 0.19647,3.17445 0.49263,3.66041 1.41421,7.44011 3.70397,10.44193 1.40941,1.84768 3.54151,3.82269 5.20025,5.44656 0,0 0.24018,0.176 0.24018,0.176 v 0 c -1.54201,-2.10921 -0.50267,-0.47441 -1.50361,-2.59243 -0.31092,-0.65793 -0.68582,-1.2849 -0.98485,-1.94831 -1.12945,-2.50572 -1.93068,-5.14262 -2.31201,-7.86787 -0.23941,-2.86507 -0.40486,-3.50104 -0.19066,-6.39487 0.29764,-4.02126 1.44732,-7.92064 2.54883,-11.77649 0.86134,-2.82522 1.80642,-5.61796 2.70822,-8.43009 0.29832,-0.93027 0.53286,-1.88187 0.87154,-2.79823 0.33365,-0.90274 1.61255,-3.57578 2.03423,-4.47252 0.91548,-2.12064 0.87391,-1.93767 1.63528,-4.0198 0.57298,-1.56691 1.03405,-3.21608 2.03661,-4.58016 0,0 -2.52991,-2.27893 -2.52991,-2.27893 z" />
    <path
       style="opacity:0.998;fill:#333333;stroke-width:1.4427;paint-order:stroke markers fill;stop-color:#000000"
       id="path981"
       d="m 315.45475,235.5742 c -0.45196,1.84248 -1.41514,2.88649 -2.57637,4.30995 -0.89279,1.09441 -1.74192,2.22373 -2.6135,3.3351 -1.58815,1.87756 -2.8267,3.98426 -4.06266,6.09646 -0.98587,1.6848 -1.9657,3.32155 -2.79572,5.08867 -0.15291,0.38241 -0.31365,0.76179 -0.45874,1.14724 -0.42561,1.13062 -0.13644,0.51836 -0.4971,1.32987 -0.0223,0.0502 0.0138,-0.18396 0.0597,-0.15372 0.84421,0.55657 1.45182,1.58914 2.44035,1.80192 0.41758,0.0899 0.36446,-0.77265 0.54669,-1.15898 2.37348,-3.71424 4.55996,-7.54484 6.52262,-11.49383 0.47495,-1.34181 1.94395,-3.77376 1.45221,-5.27129 -0.0704,-0.21436 -0.21757,-0.39534 -0.32635,-0.59302 -2.73417,-2.54574 -2.9863,-3.39742 -2.16781,-1.54952 0,0 0.193,0.22673 0.193,0.22673 v 0 c 1.49956,1.47249 1.09603,1.07268 -1.22921,-1.18036 0.39645,1.89169 -0.34955,3.80666 -0.94051,5.57035 -0.53544,1.46751 -0.94304,2.63829 -1.5607,4.09159 -1.12027,2.63597 -0.91955,1.97993 -2.1942,4.53006 -1.83812,3.67743 -0.18601,0.58909 -1.86722,3.6661 -1.2546,1.94209 -1.04016,0.89517 1.27924,3.84452 0.0395,0.0502 0.0766,-0.1024 0.11003,-0.15679 0.0874,-0.14211 0.16519,-0.28997 0.25224,-0.4323 1.27058,-2.07797 -0.55416,0.97336 1.04642,-1.71982 0.9307,-1.68286 1.71099,-3.46857 2.73642,-5.09674 1.28263,-2.03657 2.89069,-3.84662 4.3941,-5.71601 0.65869,-0.79287 2.0983,-2.45194 2.64004,-3.37996 1.00405,-1.71998 1.31127,-3.70835 1.31777,-5.66668 0,0 -1.70072,-1.46954 -1.70072,-1.46954 z" />
    <path
       style="opacity:0.998;fill:#333333;stroke-width:1.4427;paint-order:stroke markers fill;stop-color:#000000"
       id="path983"
       d="m 294.80176,250.43871 c -2.08534,1.45951 -3.90354,3.2331 -5.96824,4.71864 -4.52345,2.697 -8.99347,5.47585 -13.42212,8.327 -2.46485,1.59237 -4.95688,3.14251 -7.47053,4.6566 -1.14343,0.68876 -2.64661,1.44434 -3.57932,2.4608 -0.42277,0.46071 -0.68223,1.04807 -1.02335,1.57211 -0.3557,0.37614 -0.71141,0.75227 -1.06712,1.1284 0,0 0.20116,0.2195 0.20116,0.2195 v 0 c 0.69789,-0.008 1.39578,-0.0169 2.09366,-0.0254 0.84474,0.003 1.69931,0.13781 2.53424,0.009 1.74131,-0.26791 2.66837,-1.03554 4.07782,-1.99064 2.40668,-1.63089 4.73306,-3.37895 7.15848,-4.9829 2.1751,-1.44963 3.20424,-2.15064 5.39367,-3.55083 2.08363,-1.33254 4.22863,-2.58679 6.2577,-4.00352 0.50828,-0.35488 0.99429,-0.74063 1.49143,-1.11094 1.91379,-1.64094 3.65809,-3.47789 5.67199,-4.99571 0,0 -2.34947,-2.43244 -2.34947,-2.43244 z" />
    <path
       style="opacity:0.998;fill:#333333;stroke-width:1.4427;paint-order:stroke markers fill;stop-color:#000000"
       id="path985"
       d="m 226.2136,252.93084 c 1.38693,2.68956 3.49467,4.90368 5.52149,7.11671 2.12036,2.10626 4.0373,4.41828 6.56897,6.04273 1.48681,0.95402 2.74312,1.38802 4.36673,2.06015 0,0 -0.18132,-0.23617 -0.18132,-0.23617 v 0 c -3.00418,-2.05943 -3.37733,-2.22243 -6.16908,-4.49594 -0.79917,-0.65084 -1.51234,-1.40708 -2.34095,-2.02002 -0.39872,-0.29493 0.69578,0.70694 1.04367,1.06041 -2.23581,-2.44401 -4.3154,-5.00964 -6.30798,-7.65561 0,0 -2.50153,-1.87226 -2.50153,-1.87226 z" />
    <path
       style="opacity:0.998;fill:#333333;stroke-width:1.4427;paint-order:stroke markers fill;stop-color:#000000"
       id="path989"
       d="m 145.66188,275.9329 c 1.94455,-2.03639 4.07636,-3.87397 6.19893,-5.71953 2.98658,-2.62109 6.09469,-5.10968 9.32967,-7.41856 2.45568,-1.75267 3.77325,-2.57597 6.31454,-4.2372 3.42278,-2.19554 6.91914,-4.27258 10.41177,-6.35399 3.20805,-1.91183 4.37583,-2.63529 7.65658,-4.45208 1.29998,-0.71989 2.61573,-1.41095 3.9236,-2.11643 6.50301,-3.41184 13.24537,-6.3897 20.17676,-8.82208 1.24682,-0.43754 2.50733,-0.83504 3.761,-1.25257 4.31822,-1.41101 8.75089,-2.40642 13.25504,-2.98412 1.89512,-0.24306 3.15454,-0.33248 5.02883,-0.49273 0.10588,-0.007 3.57686,-0.21856 3.83791,-0.2674 0.42248,-0.079 0.90686,-0.12743 1.21757,-0.4244 0.27363,-0.2615 0.23665,-0.71903 0.35497,-1.07854 0,0 -0.0973,-0.1127 -0.0973,-0.1127 v 0 c -0.70044,-0.31661 -1.36843,-0.71805 -2.10134,-0.94984 -1.85452,-0.58651 -3.80431,-0.18949 -5.67459,0.0194 -0.74108,0.11923 -1.48489,0.22265 -2.22326,0.35769 -5.20009,0.95109 -10.31449,2.37283 -15.32542,4.04253 -1.22795,0.44985 -2.46479,0.87614 -3.68387,1.34955 -1.24621,0.48394 -2.47776,1.00498 -3.71063,1.52198 -5.52073,2.31512 -10.97652,4.78952 -16.31042,7.5096 -7.48331,4.07091 -14.88509,8.28988 -22.08134,12.85354 -3.12932,1.99888 -6.26165,3.99584 -9.28545,6.15356 -0.92362,0.65908 -3.81873,2.84234 -4.7756,3.56812 -0.67304,0.5105 -1.34268,1.02546 -2.01402,1.53819 -2.17503,1.79486 -4.27966,3.66773 -6.4263,5.49516 0,0 2.24234,2.2729 2.24234,2.2729 z" />
    <path
       style="opacity:0.998;fill:#333333;stroke-width:1.4427;paint-order:stroke markers fill;stop-color:#000000"
       id="path997"
       d="m 207.79197,107.79762 c -0.41006,2.4586 -0.0754,4.9888 0.1437,7.45077 0.63463,6.26469 1.35905,12.52023 2.11189,18.77175 0.81024,6.93422 1.70025,13.86734 2.13345,20.83863 0.0938,1.50948 0.14799,3.02117 0.22197,4.53175 0.38818,9.23089 0.23125,18.46839 -0.0834,27.69785 -0.24522,8.58848 -0.60154,17.17315 -0.87358,25.76083 -0.0337,2.29564 -0.11791,4.59022 -0.16025,6.88567 -0.035,1.89384 -0.12644,4.09547 0.1727,5.98465 0.15305,0.9665 0.49052,1.89507 0.70136,2.85064 0.15134,0.68591 0.25651,1.38119 0.38476,2.07179 0,0 0.16068,0.13605 0.16068,0.13605 v 0 c 0.32311,-2.15913 0.0711,-1.05154 0.80225,-3.31196 0.14239,-0.85346 0.13426,-1.72609 0.15599,-2.59107 0.0845,-3.36384 -0.11204,-6.73539 0.0285,-10.0994 0.0893,-8.663 0.26795,-17.32509 0.61278,-25.98205 0.20676,-9.32673 0.4988,-18.67458 -0.22184,-27.98773 -0.73807,-8.57535 -1.696,-17.12705 -2.70351,-25.67467 -0.69754,-6.14794 -1.35939,-12.30028 -1.76971,-18.4754 -0.16437,-2.43988 -0.42344,-4.905 -0.11665,-7.3444 0,0 -1.70112,-1.5137 -1.70112,-1.5137 z" />
    <path
       style="opacity:0.998;fill:#333333;stroke-width:1.4427;paint-order:stroke markers fill;stop-color:#000000"
       id="path999"
       d="m 200.70107,103.85162 c 0.75478,-0.73546 1.39082,-1.57538 2.25081,-2.1924 0.28446,0.0637 0.36005,-0.40234 0.60463,-0.41848 0.0824,-0.006 0.25293,0.21208 0.19044,0.1582 -0.42713,-0.36835 -0.80252,-0.8084 -1.28437,-1.10154 -0.10429,-0.0635 0.0544,0.23871 0.0658,0.36025 0.0157,0.16745 0.0103,0.33621 0.0154,0.50432 -0.13079,1.77362 -0.21626,3.54689 -0.26111,5.32602 -0.0677,2.51161 0.0378,5.02295 0.055,7.53498 0.11826,3.36737 0.0327,6.73555 0.006,10.1034 0.0144,4.21103 0.0355,8.422 -0.0128,12.63285 -0.11181,4.9904 -0.20795,9.98093 -0.2529,14.97243 -0.0302,5.73819 -0.31524,11.47019 -0.50857,17.20403 -0.23992,6.29041 -0.50218,12.58029 -0.68845,18.8726 -0.16213,5.54457 -0.11725,11.09093 -0.0356,16.63619 0.0873,5.14198 0.17333,10.2843 0.087,15.42669 -0.0395,2.27042 -0.20055,4.539 -0.23139,6.80957 -0.008,0.6417 -0.0591,1.28786 0.016,1.92523 0.096,0.81549 0.65673,2.74544 0.89185,3.59747 0,0 0.15938,0.13756 0.15938,0.13756 v 0 c 0.34922,-0.45475 1.02727,-1.27247 1.18725,-1.80093 0.16745,-0.55312 0.16768,-1.14403 0.2248,-1.71911 0.22276,-2.24303 0.27203,-4.5027 0.31489,-6.75438 0.0683,-5.17505 -0.019,-10.34718 -0.17981,-15.52025 -0.11622,-5.57342 -0.11808,-11.14756 -0.0819,-16.72197 0.0305,-6.35154 0.12608,-12.70086 0.47732,-19.04438 0.28612,-5.7301 0.48755,-11.4647 0.52355,-17.2024 0.0713,-4.98386 0.17893,-9.9667 0.2784,-14.95009 0.0606,-4.17699 0.0863,-8.35425 0.13535,-12.53136 0.003,-3.40499 -0.0579,-6.8096 -0.12387,-10.21388 -0.0924,-2.59333 -0.16931,-5.18732 -0.34908,-7.7765 -0.0275,-1.85135 0.11308,-3.69994 0.0233,-5.55089 -0.003,-0.0319 -0.0829,-0.94132 -0.1518,-1.02775 -1.46955,-1.843997 -1.42213,-2.077237 -1.95828,-0.71327 -0.44234,0.98594 -1.14544,1.76007 -2.01823,2.39728 0,0 0.63101,0.64051 0.63101,0.64051 z" />
    <path
       style="opacity:0.998;fill:#333333;stroke-width:1.4427;paint-order:stroke markers fill;stop-color:#000000"
       id="path1001"
       d="m 201.66055,222.36582 c -0.10406,0.91165 -0.0473,0.44643 -0.17119,1.39554 0,0 0.15556,0.14188 0.15556,0.14188 v 0 c 0.41608,-0.65622 0.16928,-0.3804 0.72105,-0.84439 0,0 -0.70542,-0.69303 -0.70542,-0.69303 z" />
    <path
       style="opacity:0.998;fill:#333333;stroke-width:1.4427;paint-order:stroke markers fill;stop-color:#000000"
       id="path1005"
       d="m 94.201399,175.41119 c 1.869692,0.73546 3.687678,1.58375 5.477386,2.49447 3.747055,2.00692 7.279435,4.39168 10.711125,6.89175 3.59727,2.7098 7.02189,5.64154 10.25106,8.78065 0.83843,0.81505 4.10239,4.33651 4.1222,4.35767 5.99141,6.62589 11.6721,13.52191 17.56351,20.23542 5.47173,6.11524 11.24701,11.94837 16.99259,17.80399 0.81227,0.82097 1.62209,1.64434 2.43679,2.46288 1.39503,1.40165 2.79281,2.80055 4.19238,4.19766 2.14713,2.14337 4.2803,4.2989 6.6686,6.17465 0.16042,-0.0308 0.32084,-0.0616 0.48126,-0.0924 0,0 -0.12657,-0.16825 -0.12657,-0.16825 v 0 c -0.61149,-0.58105 -1.22298,-1.1621 -1.83448,-1.74314 -3.30929,-3.01492 -6.56202,-6.09091 -9.69678,-9.28775 -5.82297,-5.89719 -11.67401,-11.77456 -17.20942,-17.94546 -5.94268,-6.73332 -11.67693,-13.64724 -17.67889,-20.32853 -5.36067,-5.75309 -10.90712,-11.35737 -17.30613,-15.97093 -3.50749,-2.54139 -7.08504,-5.02038 -10.898749,-7.08486 -1.719494,-0.87764 -3.47672,-1.63115 -5.304614,-2.25228 0,0 1.158732,1.47441 1.158732,1.47441 z" />
    <path
       style="opacity:0.998;fill:#333333;stroke-width:1.4427;paint-order:stroke markers fill;stop-color:#000000"
       id="path1007"
       d="m 95.911492,175.81207 c 0.07782,0.29262 -0.988292,-0.61646 -0.766299,-0.4263 0.504935,0.43251 0.922309,1.01316 1.533005,1.27601 0.187485,0.0807 -0.01596,-0.4097 0.0094,-0.61226 0.101822,-0.82215 0.325619,-1.39117 0.575622,-2.20428 1.750168,-4.77319 4.8257,-8.8849 7.81208,-12.94146 4.86656,-6.31662 10.24326,-12.22785 15.91138,-17.83181 1.24928,-1.23514 2.52918,-2.43891 3.79376,-3.65837 6.47524,-6.13578 13.37338,-11.81234 20.55232,-17.10443 1.4415,-1.06264 2.91119,-2.08651 4.36678,-3.12975 6.59573,-4.63734 13.46752,-8.88075 20.59521,-12.65154 1.31413,-0.69521 2.64866,-1.3512 3.97299,-2.0268 4.89762,-2.3965 9.85895,-4.671397 14.9757,-6.564017 2.9336,-1.0851 3.50415,-1.22138 6.41758,-2.12548 2.59627,-0.73976 5.2411,-1.30334 7.91659,-1.6641 1.59639,-0.21525 3.19285,-0.2717 4.78141,-0.53445 0.61171,-0.83648 0.3968,-0.39265 0.67705,-1.31535 0,0 -0.1387,-0.1584 -0.1387,-0.1584 v 0 c -1.6792,-0.68264 -0.79521,-0.35715 -2.65733,-0.96171 -0.4414,0.0118 -0.88499,-0.01 -1.3242,0.0354 -0.63953,0.0662 -2.86578,0.52404 -3.37817,0.6366 -2.57281,0.56521 -5.12266,1.23869 -7.63466,2.03217 -7.21715,2.54722 -14.24456,5.60938 -21.04889,9.115957 -2.63055,1.38383 -5.37617,2.79297 -7.94522,4.28848 -5.627,3.27561 -10.9394,7.06131 -16.24295,10.82638 -2.99195,2.19525 -5.74374,4.18105 -8.67216,6.46425 -5.601,4.36691 -11.04571,8.95976 -16.18985,13.85708 -6.97038,6.7787 -13.80635,13.7191 -20.05766,21.17489 -3.14574,3.91682 -6.244844,7.95566 -8.296505,12.57608 -0.132004,0.31908 -1.086601,2.43841 -0.808796,2.87012 0.94521,1.46884 1.282483,2.09384 2.583314,2.33653 0,0 -1.312542,-1.5795 -1.312542,-1.5795 z" />
    <path
       style="opacity:0.998;fill:#333333;stroke-width:1.4427;paint-order:stroke markers fill;stop-color:#000000"
       id="path1009"
       d="m 202.26453,93.973383 c 0.78478,2.50135 1.02169,5.11869 1.50925,7.681097 0.18715,0.98356 0.42016,1.95784 0.63025,2.93676 0.0921,1.00979 0.18414,2.0196 0.27621,3.02939 0,0 0.16112,0.13552 0.16112,0.13552 v 0 c -0.0584,-0.98169 -0.11667,-1.96339 -0.17499,-2.94509 0.0458,-0.76555 0.13655,-1.52972 0.1375,-2.29664 0.003,-2.40089 -0.50307,-4.765377 -0.8295,-7.131477 0,0 -1.70984,-1.40956 -1.70984,-1.40956 z" />
    <path
       style="opacity:0.998;fill:#333333;stroke-width:1.4427;paint-order:stroke markers fill;stop-color:#000000"
       id="path1015"
       d="m 92.153949,183.02177 c 1.435272,1.27665 2.781027,2.66169 4.305816,3.82996 0.437215,0.33498 3.149056,1.19742 3.500967,1.30042 2.386468,0.69847 4.847458,1.15383 7.275548,1.67773 7.7246,1.94119 14.53704,5.98746 21.2216,10.16555 7.69984,4.6877 14.40345,10.71647 21.10255,16.69082 2.55707,2.3221 3.90209,3.50317 6.36616,5.89812 0.96359,0.93655 1.98896,1.81937 2.85003,2.85097 0.66939,0.80195 -2.49316,-3.17937 -2.27198,-2.15845 0.24554,1.13342 1.57714,1.70074 2.35848,2.55774 0.78245,0.8582 1.55522,1.72518 2.33283,2.58777 4.56319,5.06364 9.13578,10.17977 14.30857,14.64282 0.10611,0.0915 0.13127,-0.24766 0.1969,-0.3715 0,0 -0.24854,-0.33989 -0.24854,-0.33989 v 0 c -5.9233,-6.7674 -1.7704,-1.77603 -0.13317,-0.77745 0.75876,0.46278 -1.24501,-1.26868 -1.86269,-1.9077 -2.22221,-2.29897 -4.40816,-4.63311 -6.52312,-7.03156 -6.71896,-7.46366 -13.77011,-14.6383 -21.29952,-21.28876 -6.60212,-5.85749 -13.24134,-11.74723 -20.89486,-16.22496 -6.34198,-3.80353 -12.80056,-7.74227 -20.2844,-8.68939 -3.11607,-0.63281 -6.270265,-1.21905 -9.215585,-2.46305 -0.530452,-0.22405 -1.762647,-1.29248 -1.553214,-0.75609 0.414531,1.06163 1.506563,1.71052 2.259839,2.56578 0,0 -3.792211,-2.75888 -3.792211,-2.75888 z" />
    <path
       style="opacity:0.998;fill:#333333;stroke-width:1.4427;paint-order:stroke markers fill;stop-color:#000000"
       id="path1017"
       d="m 282.09882,283.89473 c -2.93972,2.66307 -3.64843,6.84512 -4.41441,10.5524 -0.714,3.80086 -1.13635,7.64627 -1.36909,11.50435 -0.0613,1.01647 -0.1965,2.03328 -0.15788,3.05086 0.0437,1.15149 0.26934,2.28882 0.40401,3.43323 1.69891,4.72304 0.93436,2.51807 2.3136,6.60793 0,0 0.32227,0.27101 0.32227,0.27101 v 0 c 0.87736,-2.08875 0.29393,-1.05702 1.83489,-3.04582 0.17298,-0.87013 0.41248,-1.72962 0.51894,-2.61035 0.12127,-1.0034 0.0965,-2.0192 0.16249,-3.02773 0.25359,-3.87622 0.60025,-7.75207 1.13464,-11.59998 0.70597,-3.93244 1.51234,-7.51738 3.34477,-11.09582 0,0 -4.09423,-4.04008 -4.09423,-4.04008 z" />
    <path
       style="opacity:0.998;fill:#333333;stroke-width:1.4427;paint-order:stroke markers fill;stop-color:#000000"
       id="path1019"
       d="m 282.61557,281.97618 c -1.89388,5.14087 -2.20865,10.66606 -2.46631,16.08647 -0.0243,6.55094 1.06112,13.12891 3.50051,19.22934 0.38862,0.97186 0.87178,1.90316 1.30765,2.85475 3.49894,6.63647 9.17468,11.47079 14.43471,16.69311 0.32736,0.75537 2.34261,1.70687 2.72503,2.4107 -10.03656,-13.29262 -7.46398,-9.01865 -0.51633,-2.70453 0.40795,0.37074 -0.67812,-0.8707 -0.98209,-1.33058 -0.38668,-0.58498 -0.74544,-1.18864 -1.08766,-1.80068 -0.89241,-1.59594 -1.48499,-2.91351 -2.27714,-4.57502 -2.27464,-5.2658 -5.24319,-10.22746 -7.18915,-15.63635 -0.46138,-1.28245 -0.82794,-2.59706 -1.24191,-3.89558 -1.72984,-4.98475 -1.60129,-10.3786 -2.92881,-15.44127 -0.38922,-1.48434 -0.97112,-2.91138 -1.4454,-4.37077 -0.46128,-1.41933 -0.90747,-2.84354 -1.3612,-4.26531 0,0 -0.31965,-0.27409 -0.31965,-0.27409 v 0 c -0.86013,1.08215 -2.32606,2.67118 -2.61854,4.10192 -0.2189,1.07076 -0.0741,2.18899 0.009,3.27871 0.30446,3.97923 1.34133,7.8925 2.19971,11.77175 0.37534,1.29502 0.70233,2.60505 1.12604,3.88506 1.75136,5.2909 4.47446,10.16672 6.652,15.27864 0.93286,2.11058 1.83406,4.24997 2.96875,6.26371 0.25704,0.4562 0.47221,0.95046 0.82703,1.33553 11.33776,12.30435 8.11273,8.56742 2.22418,0.24657 -0.88375,-0.33116 -1.61029,-1.58815 -2.43194,-2.0286 1.84988,1.87458 3.71009,3.73904 5.54968,5.62371 0.42759,0.43806 -0.88609,-0.84525 -1.31339,-1.28359 -2.33152,-2.3918 -4.42135,-5.01641 -6.10056,-7.90997 -0.50067,-0.96652 -1.05413,-1.90746 -1.50198,-2.89955 -2.73002,-6.04754 -3.65871,-12.62051 -3.93249,-19.19782 -0.26189,-5.72106 -0.35693,-10.86318 1.78571,-16.28118 0,0 -5.59572,-5.16508 -5.59572,-5.16508 z" />
    <path
       style="opacity:0.998;fill:#333333;stroke-width:1.4427;paint-order:stroke markers fill;stop-color:#000000"
       id="path1023"
       d="m 57.879327,336.93986 c 5.494324,-3.08489 10.744585,-6.56624 15.99104,-10.04787 7.413132,-4.81515 15.211368,-8.9622 23.180857,-12.76668 8.974486,-4.40389 18.428186,-7.58421 27.995836,-10.39967 10.90894,-2.76947 21.70406,-5.96127 32.64272,-8.61224 10.27603,-2.30805 20.59891,-4.40357 31.01155,-5.99108 9.38471,-1.33268 18.88128,-1.47314 28.34041,-1.7585 9.83403,-0.17979 19.65902,-0.57249 29.48406,-1.0115 8.20645,-0.47549 16.41902,-0.60873 24.63636,-0.49417 4.4595,0.12817 8.85221,0.83051 13.15303,1.98437 0.71573,-0.122 1.52051,0.82425 2.24573,0.64572 0.24345,-0.06 -0.17984,-0.4809 -0.34822,-0.66666 -1.5415,-1.70052 -3.10519,-3.38083 -4.65778,-5.07123 3.07912,2.74187 1.64322,2.83485 3.51012,2.5126 0,0 -0.25654,-0.33391 -0.25654,-0.33391 v 0 c -2.29255,-1.88457 -2.20084,-1.91716 -0.0754,0.28209 -1.66783,-1.91176 -3.314,-3.84265 -5.00351,-5.73527 -0.97063,-1.0873 -2.13236,-1.41121 -3.53985,-1.56622 -4.12606,-0.6561 -8.30237,-0.99335 -12.48211,-0.75481 -7.94779,0.34415 -15.88002,0.99867 -23.81756,1.51724 -9.69736,0.67747 -19.41336,1.07553 -29.12906,1.38096 -9.49553,0.26398 -19.05421,0.25965 -28.45007,1.82575 -10.34875,1.77328 -20.6414,3.881 -30.86509,6.27152 -10.86153,2.71613 -21.63614,5.75103 -32.35185,8.99555 -9.61804,2.82088 -19.161127,5.97726 -28.173617,10.41654 -8.019068,3.82323 -15.908908,7.90809 -23.39877,12.70428 -5.356578,3.3489 -10.601947,6.91732 -16.412909,9.4598 0,0 6.770621,7.21339 6.770621,7.21339 z" />
    <path
       style="opacity:0.998;fill:#333333;stroke-width:1.4427;paint-order:stroke markers fill;stop-color:#000000"
       id="path1025"
       d="m 283.83257,283.99963 c -1.13649,3.88563 -0.41791,7.8444 0.22064,11.74593 1.3353,6.64764 2.47071,13.33201 3.86497,19.96777 1.22442,5.00358 2.55075,10.08166 5.09963,14.60409 0.40326,0.71549 0.87539,1.38992 1.31307,2.08488 3.42258,4.29181 7.76331,8.04935 11.7257,11.70978 1.64976,1.52404 0.49518,-1.10217 0.40069,-1.35079 0,0 -0.25366,-0.33611 -0.25366,-0.33611 v 0 c -0.86703,-0.9376 -1.7275,-1.88131 -2.60108,-2.8128 -0.63245,-0.67438 -1.26493,-1.34908 -1.91682,-2.00465 -0.46077,-0.46337 -1.88183,-1.81379 -1.42026,-1.35124 2.06854,2.07284 4.15795,4.12476 6.2415,6.18253 0.35396,0.34958 -0.71774,-0.69016 -1.05273,-1.05794 -0.45736,-0.50212 -0.88176,-1.03329 -1.32264,-1.54993 -0.45611,-0.66148 -0.94478,-1.30166 -1.3683,-1.98447 -2.77226,-4.46958 -4.33924,-9.5599 -5.64978,-14.61311 -1.49369,-6.69207 -2.84598,-13.41846 -4.18055,-20.1435 -0.59285,-3.82681 -1.08605,-7.70277 -0.68816,-11.57892 0,0 -8.41222,-7.51152 -8.41222,-7.51152 z" />
    <path
       style="opacity:0.998;fill:#333333;stroke-width:1.4427;paint-order:stroke markers fill;stop-color:#000000"
       id="path1027"
       d="m 275.13797,334.04014 c -0.0472,-0.31497 -0.12727,-0.62674 -0.14159,-0.94491 -0.0798,-1.77488 0.12451,-0.32518 0.31558,-2.10606 0.115,-1.07186 -0.0275,-2.15654 0.007,-3.23401 0.0229,-0.71797 0.0834,-1.43426 0.12505,-2.15139 0.89215,-7.23921 3.44319,-14.14283 5.79656,-21.0062 1.72843,-4.9724 3.65043,-9.88952 6.31038,-14.44278 2.50712,-3.89697 1.48808,-1.56744 -4.67569,-7.73472 -1.08919,-0.75466 -1.67001,0.63075 -2.0896,1.4798 -1.24773,4.50934 -0.48956,9.33634 0.28287,13.86225 1.45278,7.41092 5.02252,13.49494 9.23808,19.634 5.25898,6.77336 10.63365,13.46123 16.08911,20.07794 5.00507,4.92968 2.34218,2.47078 8.0205,7.34211 0,0 -0.24852,-0.33992 -0.24852,-0.33992 v 0 c -0.17542,-1.10199 0.0119,-0.31291 -1.18824,-2.12315 -5.48037,-6.60813 -10.90654,-13.26582 -16.1678,-20.04969 -4.19109,-6.00317 -7.67382,-11.86663 -9.19083,-19.13082 -0.73911,-4.48764 -1.06407,-8.71124 -0.20878,-13.21114 0.0763,-0.37056 0.051,-0.78944 0.25984,-1.10488 0.0164,-0.0247 0.0229,0.0584 0.0469,0.0756 0.10955,0.0787 0.25513,0.11082 0.35756,0.0129 -1.79579,-1.89766 -3.61004,-3.77801 -5.38735,-5.69297 -0.0153,-0.0164 0.20497,-0.0742 0.17317,0.24522 -0.0612,0.61493 -0.36793,1.21108 -0.52434,1.79671 -1.86135,5.11371 -3.53319,10.29491 -5.33866,15.42827 -2.38971,6.78178 -5.08643,13.53089 -6.47274,20.60529 -0.205,1.70026 -0.35035,2.26424 -0.27535,3.92371 0.0924,2.04387 0.95662,3.88265 1.30367,5.88097 0,0 3.58323,2.90779 3.58323,2.90779 z" />
    <path
       style="opacity:0.998;fill:#333333;stroke-width:1.4427;paint-order:stroke markers fill;stop-color:#000000"
       id="path1029"
       d="m 288.61007,295.82189 c 0.58616,1.92379 0.7997,3.93351 1.26874,5.8838 0.59573,2.47709 0.93547,3.32711 1.75229,5.80982 1.97846,5.41376 4.20219,10.82217 7.64393,15.49551 0.61614,0.83664 1.31601,1.60825 1.974,2.41239 4.916,4.80737 5.9336,7.03353 10.7713,9.51301 3.94443,2.02166 8.24254,2.95617 12.57324,3.68254 3.09452,0.37611 6.21188,0.28803 9.31549,0.11827 0.2992,-0.0163 4.99646,-0.30554 5.43534,-0.45078 0.59978,-0.19851 1.02776,-0.735 1.54163,-1.10249 -0.0139,-0.84683 -0.0279,-1.69368 -0.0417,-2.54053 0,0 -0.27735,-0.31683 -0.27735,-0.31683 v 0 c -1.32259,-0.68634 -2.64518,-1.3727 -3.96776,-2.05904 -1.01284,-0.21048 -2.00695,-0.55359 -3.03848,-0.63144 -0.86767,-0.0654 -1.73503,0.13492 -2.6023,0.20567 -3.93865,0.32135 -7.89716,0.67292 -11.83967,0.15085 -3.20611,-0.51789 -6.28418,-1.11533 -9.30283,-2.36966 -0.98802,-0.41056 -1.96412,-0.85878 -2.89493,-1.38635 -0.90123,-0.5108 -3.04649,-2.64981 -2.58766,-1.72105 0.78923,1.5975 2.44099,2.59641 3.66149,3.89463 -0.70221,-0.80195 -1.44875,-1.56715 -2.10661,-2.40583 -3.72926,-4.7544 -6.44175,-10.43993 -8.67496,-16.01543 -0.31242,-0.98446 -0.65235,-1.96064 -0.93729,-2.95342 -0.92677,-3.22899 -1.32697,-6.67184 -3.04079,-9.62366 0,0 -4.62502,-3.58998 -4.62502,-3.58998 z" />
    <path
       style="opacity:0.998;fill:#333333;stroke-width:1.4427;paint-order:stroke markers fill;stop-color:#000000"
       id="path1031"
       d="m 52.730756,326.31578 c 3.409986,4.02658 7.914828,6.58601 12.286164,9.38603 6.542914,4.53801 13.736905,7.951 20.939528,11.28449 10.494733,4.57665 21.495802,7.82658 32.616622,10.46631 13.53144,2.84522 27.33326,3.71158 41.10318,4.47569 14.34401,0.75464 28.71941,0.54744 43.07189,0.17928 9.21058,-0.21763 18.41438,-0.81136 27.54924,-2.03163 4.69083,-0.62663 8.24117,-1.25535 12.9024,-2.03089 8.2637,-1.43826 16.47751,-3.24052 24.52447,-5.62024 4.98774,-1.47501 6.22105,-1.9828 11.0697,-3.70091 5.00964,-1.86462 9.87273,-4.09825 14.69898,-6.38845 2.46637,-1.17038 6.27196,-2.98667 8.62242,-4.42423 1.2442,-0.76096 2.39897,-1.65931 3.59845,-2.48894 3.35237,-4.12847 1.71753,-2.09114 4.90691,-6.11003 0,0 -0.29134,-0.30401 -0.29134,-0.30401 v 0 c -5.53421,1.59416 -2.68801,0.83175 -8.54271,2.27185 -9.07197,4.22656 -17.71134,9.38186 -27.08207,12.98378 -4.91964,1.87347 -5.76574,2.28127 -10.85867,3.86633 -7.95812,2.47679 -16.10329,4.25363 -24.28737,5.79742 -13.208,2.40383 -26.52607,4.25488 -39.97362,4.49448 -14.27536,0.32783 -28.55823,0.5585 -42.83316,0.047 -13.65204,-0.61265 -27.35485,-1.51615 -40.77913,-4.20674 -10.92031,-2.51171 -21.680506,-5.65108 -32.067373,-9.89475 -7.07687,-3.10734 -13.936044,-6.68148 -20.494351,-10.77994 -2.03371,-1.31548 -3.036366,-1.94691 -5.015453,-3.29206 -0.648404,-0.44072 -1.29679,-0.88192 -1.930613,-1.34336 -0.515144,-0.37506 -0.896216,-1.01451 -1.515298,-1.16541 -0.432143,-0.10535 0.640954,0.62965 0.873316,1.00893 0.174283,0.28447 -0.463931,-0.47957 -0.695897,-0.71934 0,0 -2.396215,-1.76073 -2.396215,-1.76073 z" />
    <path
       style="opacity:0.998;fill:#333333;stroke-width:1.4427;paint-order:stroke markers fill;stop-color:#000000"
       id="path1033"
       d="m 43.547129,314.21131 c -5.376787,-2.84442 -8.921328,-8.10572 -12.359617,-12.93095 -7.50807,-12.66033 -11.79904,-26.88877 -16.022072,-40.89709 -3.511053,-11.38205 -5.7393217,-23.06602 -7.7649191,-34.78226 0,0 -0.3248254,-0.26796 -0.3248254,-0.26796 v 0 c 2.024587,11.7175 4.2511465,23.4029 7.7616985,34.78624 4.222164,14.01109 8.513729,28.24055 16.013629,40.90792 3.793118,5.32973 7.792221,11.00805 13.591236,14.31882 0,0 -0.89513,-1.13472 -0.89513,-1.13472 z" />
    <path
       style="opacity:0.998;fill:#333333;stroke-width:1.4427;paint-order:stroke markers fill;stop-color:#000000"
       id="path1035"
       d="m 355.30014,93.293093 c 6.24505,7.405807 11.37855,15.670497 16.46457,23.890817 4.68544,7.88087 8.62281,16.25729 11.45444,24.98893 1.98685,6.12666 2.23875,8.06302 3.60671,14.37798 1.70812,9.93975 2.40376,20.10664 1.69714,30.18261 -0.37634,5.3662 -1.26668,10.7066 -2.04729,16.02078 -2.27145,14.58947 -6.35529,28.8491 -11.50075,42.67397 -0.96875,2.60286 -2.03478,5.16849 -3.05218,7.75274 -4.54435,10.69804 -10.12443,20.91452 -16.10817,30.866 -1.50254,2.49885 -3.15914,4.90583 -4.58995,7.44644 -1.42111,2.52342 -2.63941,5.15582 -3.95911,7.73373 -1.58418,2.15246 -3.16837,4.30494 -4.75255,6.45741 0,0 0.30164,0.29379 0.30164,0.29379 v 0 c 1.65889,-2.0811 3.31776,-4.16221 4.97665,-6.24332 1.90844,-2.01535 3.99796,-3.87349 5.72533,-6.04603 1.80475,-2.26985 3.29762,-4.77361 4.83317,-7.23356 6.20852,-9.94593 11.10761,-20.65075 15.51122,-31.49434 2.56198,-7.10665 3.33186,-8.92351 5.4938,-16.22411 3.4217,-11.55467 5.9609,-23.36042 7.97254,-35.23584 0.3245,-2.77951 0.71758,-5.55186 0.97354,-8.33851 1.17307,-12.77061 1.14837,-25.69725 -1.14908,-38.34517 -1.36572,-6.31337 -1.61871,-8.25708 -3.6031,-14.38247 -2.82938,-8.73367 -6.76506,-17.11264 -11.44915,-24.99571 -4.89001,-7.90595 -9.89095,-15.77308 -15.50497,-23.189897 0,0 -1.29445,-0.95624 -1.29445,-0.95624 z" />
    <path
       style="opacity:0.998;fill:#333333;stroke-width:1.4427;paint-order:stroke markers fill;stop-color:#000000"
       id="path1037"
       d="M 47.288401,310.2006 C 42.804609,308.80299 39.36751,305.5362 36.022722,302.39379 29.82387,295.5049 25.768539,287.19551 21.73627,278.94454 16.438148,268.11625 12.297616,256.75913 9.5895982,245.00646 8.9254513,242.1241 8.4019966,239.21111 7.8081959,236.31343 5.7911639,224.42703 4.6558238,212.34464 5.1191788,200.27837 5.4524657,191.59926 5.9217797,189.754 7.1037339,181.12149 c 2.2182582,-12.58055 5.2106631,-25.06842 9.5542631,-37.09713 2.768552,-7.66694 3.807293,-9.5507 7.168833,-16.91906 5.486344,-10.98418 11.736664,-21.68115 19.384868,-31.320777 4.821244,-6.0766 6.556211,-7.51415 11.969905,-12.940765 7.625794,-7.118319 16.226821,-13.090022 25.448694,-17.948917 5.630379,-2.966577 8.469513,-4.09388 14.304226,-6.663689 13.440937,-5.398952 27.265987,-9.897136 41.364207,-13.241716 2.827,-0.670653 5.67608,-1.244556 8.51412,-1.86683 12.32062,-2.406779 24.79427,-3.980524 37.32768,-4.682251 8.07768,-0.452267 11.81169,-0.434089 19.90045,-0.567628 16.05712,-0.05018 32.16736,0.376165 48.09426,2.585182 3.3021,0.457987 6.58197,1.063868 9.87294,1.595803 15.45467,3.035648 30.73345,7.101792 45.67823,12.08049 2.74847,0.915614 5.46811,1.915626 8.20217,2.873443 0,0 -0.26253,-0.329217 -0.26253,-0.329217 v 0 c -2.73439,-0.957553 -5.45439,-1.957243 -8.20317,-2.872649 -14.94646,-4.977499 -30.2265,-9.043577 -45.683,-12.07659 -3.29147,-0.531529 -6.57186,-1.136949 -9.87441,-1.594579 -15.9285,-2.207198 -32.04003,-2.632607 -48.09848,-2.581617 -8.08945,0.134075 -11.82385,0.116089 -19.90221,0.569134 -12.53501,0.702985 -25.01022,2.278068 -37.33225,4.686269 -2.8384,0.622594 -5.68783,1.196818 -8.51518,1.867793 -14.10001,3.346128 -27.92691,7.845464 -41.369339,13.246399 -5.836989,2.571321 -8.674706,3.69818 -14.307258,6.666532 -9.224791,4.861455 -17.828462,10.835991 -25.456938,17.956925 -5.415375,5.428318 -7.151476,6.867008 -11.9744,12.945348 -7.592109,9.568327 -14.034589,20.354427 -19.432672,31.288117 -3.335939,7.38754 -4.366397,9.28722 -7.130038,16.96129 -4.331541,12.02784 -7.4027252,24.47213 -9.6157516,37.05316 -1.0724734,7.37714 -1.8598511,11.53139 -2.220572,18.96382 -0.5827425,12.00685 0.7158511,24.04238 2.4934854,35.89486 0.5162491,2.8372 0.9489215,5.6909 1.5487379,8.51161 2.4645403,11.58976 6.4055933,22.82364 11.5341723,33.49518 2.474088,5.18489 4.872673,10.45121 7.932082,15.32907 2.718358,4.33409 6.050689,8.20928 9.725043,11.75868 3.252267,3.05183 6.666712,6.15406 11.092509,7.32546 0,0 -1.54801,-1.87204 -1.54801,-1.87204 z" />
  </g>
  <g
     inkscape:groupmode="layer"
     id="layer2"
     inkscape:label="vectors"
     style="display:inline">
    <path
       style="font-variation-settings:normal;opacity:1;vector-effect:none;fill:#333333;fill-opacity:1;stroke:none;stroke-width:0.264999;stroke-linecap:butt;stroke-linejoin:miter;stroke-miterlimit:4;stroke-dasharray:none;stroke-dashoffset:0;stroke-opacity:1;stop-color:#000000;stop-opacity:1"
       d="m -400.68494,242.05443 -2.84968,7.48545 c 16.54436,6.39809 15.17503,27.23322 16.6948,35.92866 l 29.48003,1.88938 c 3.28362,-9.99407 13.30056,-23.68876 25.74372,-29.25739 l 3.74394,-8.84995 c -48.0647,-7.541 -51.41591,-5.38698 -72.81281,-7.19615 z"
       id="path1040"
       sodipodi:nodetypes="ccccccc" />
    <path
       style="font-variation-settings:normal;opacity:1;vector-effect:none;fill:#333333;fill-opacity:1;stroke:none;stroke-width:0.264999;stroke-linecap:butt;stroke-linejoin:miter;stroke-miterlimit:4;stroke-dasharray:none;stroke-dashoffset:0;stroke-opacity:1;stop-color:#000000;stop-opacity:1"
       d="m -403.35621,241.75075 -3.72023,9.76829 c 19.48214,6.73939 16.3434,35.27358 17.84275,34.07833 -44.70971,-0.55713 -88.62409,2.03128 -130.35513,15.60766 31.98697,-31.31652 78.506,-49.52332 116.23261,-59.45428 z"
       id="path1042"
       sodipodi:nodetypes="ccccc" />
    <path
       style="font-variation-settings:normal;opacity:1;vector-effect:none;fill:#333333;fill-opacity:1;stroke:none;stroke-width:1.11178;stroke-linecap:butt;stroke-linejoin:miter;stroke-miterlimit:4;stroke-dasharray:none;stroke-dashoffset:0;stroke-opacity:1;stop-color:#000000;stop-opacity:1"
       d="m -573.25253,317.90485 c 7.36846,-7.40933 49.78825,-49.42686 72.62793,-62.95965 21.70549,-10.92024 2.24115,13.84437 -7.02903,22.20489 l 28.5038,-1.0675 -7.55318,7.35465 -27.72993,0.80236 -23.91427,21.77373 c -21.58319,8.40328 -24.01905,7.47187 -34.90532,11.89152 z"
       id="path1046"
       sodipodi:nodetypes="cccccccc" />
    <path
       style="font-variation-settings:normal;opacity:1;vector-effect:none;fill:#333333;fill-opacity:1;stroke:none;stroke-width:0.316889;stroke-linecap:butt;stroke-linejoin:miter;stroke-miterlimit:4;stroke-dasharray:none;stroke-dashoffset:0;stroke-opacity:1;stop-color:#000000;stop-opacity:1"
       d="m -423.39745,75.527294 -4.69081,167.260146 5.26831,-1.65637 5.15954,-167.912661 z"
       id="path1048"
       sodipodi:nodetypes="ccccc" />
    <path
       style="font-variation-settings:normal;opacity:1;vector-effect:none;fill:#333333;fill-opacity:1;stroke:none;stroke-width:0.302505;stroke-linecap:butt;stroke-linejoin:miter;stroke-miterlimit:4;stroke-dasharray:none;stroke-dashoffset:0;stroke-opacity:1;stop-color:#000000;stop-opacity:1"
       d="m -428.08826,77.084771 -5.11334,167.705499 c -8.41736,4.32499 -16.73674,8.07277 -24.38968,12.44774 -25.07848,-36.29048 -66.48741,-56.38572 -101.45407,-77.75495 32.42007,-30.58346 57.8314,-70.90437 130.95709,-102.398289 z"
       id="path1050"
       sodipodi:nodetypes="ccccc" />
    <path
       id="path1052"
       style="font-variation-settings:normal;opacity:1;vector-effect:none;fill:#333333;fill-opacity:1;stroke:none;stroke-width:0.264999;stroke-linecap:butt;stroke-linejoin:miter;stroke-miterlimit:4;stroke-dasharray:none;stroke-dashoffset:0;stroke-opacity:1;stop-color:#000000;stop-opacity:1"
       d="m -465.25546,56.717717 c -94.48721,0 -171.13684,76.651683 -171.13684,171.138903 0,94.48722 76.64963,171.13685 171.13684,171.13685 94.48722,0 171.13838,-76.64963 171.13838,-171.13685 0,-94.48721 -76.65116,-171.138903 -171.13838,-171.138903 z m 0.0104,0.178165 c 91.76461,0 166.09107,79.196138 166.09107,170.960738 0,43.01465 -15.07792,81.13986 -41.88405,110.63394 -6.24213,-4.91969 -22.14046,-19.6673 -17.80807,-45.9056 -82.45759,-7.70951 -160.90505,5.25185 -235.30021,40.03476 0.24189,0.29729 0.46665,0.60878 0.71055,0.90435 -23.69107,-28.70946 -37.91911,-65.52044 -37.91911,-105.66745 0,-91.7646 74.34525,-170.960738 166.10984,-170.960738 z M -592.15779,335.05421 c 0.85814,1.01489 1.72833,2.01946 2.61018,3.01326 -0.88183,-0.99386 -1.75205,-1.99832 -2.61018,-3.01326 z"
       sodipodi:nodetypes="sssssssccccssccc" />
  </g>
  <g
     style="display:inline"
     inkscape:label="Copie de vectors"
     id="g1273"
     inkscape:groupmode="layer">
    <rect
       style="opacity:0.998;fill:#002255;fill-opacity:1;stroke:none;stroke-width:2.7595;stroke-miterlimit:4;stroke-dasharray:none;stroke-opacity:1;paint-order:stroke markers fill;stop-color:#000000"
       id="rect1296"
       width="1084.1472"
       height="408.06378"
       x="-4.6802449"
       y="-0.78708214"
       inkscape:export-filename="/home/canuto/Documents/Repos/kenu/export-trio.png"
       inkscape:export-xdpi="96"
       inkscape:export-ydpi="96" />
    <path
       id="path1261"
       style="font-variation-settings:normal;opacity:1;vector-effect:none;fill:url(#linearGradient1290);fill-opacity:1;stroke:none;stroke-width:0.215425;stroke-linecap:butt;stroke-linejoin:miter;stroke-miterlimit:4;stroke-dasharray:none;stroke-dashoffset:0;stroke-opacity:1;stop-color:#000000;stop-opacity:1"
       d="m 173.20793,56.53114 c -76.811478,0 -139.122162,62.31245 -139.122163,139.12394 1e-6,76.81149 62.310685,139.12225 139.122163,139.12225 76.81148,0 139.1235,-62.31076 139.1235,-139.12225 0,-76.81148 -62.31202,-139.12394 -139.1235,-139.12394 z m 0.009,0.14451 c 74.5982,0 135.02047,64.38124 135.02047,138.97943 0,34.96789 -12.25747,65.96071 -34.04897,89.93732 -5.07442,-3.99936 -17.99876,-15.98781 -14.47683,-37.31772 -67.03225,-6.26728 -130.80424,4.26939 -191.282188,32.54547 0.19664,0.24167 0.37936,0.49487 0.57762,0.73516 C 49.747488,258.21655 38.181083,228.29179 38.181083,195.65508 38.181085,121.05689 98.618399,56.67565 173.21657,56.67565 Z m 38.68302,13.269065 c -141.266633,-46.62981 -70.63332,-23.314905 0,0 z m -20.01612,7.012654 c -59.44659,25.602351 -80.10404,58.380511 -106.459268,83.242721 28.425418,17.37169 61.348738,31.25495 81.735788,60.75656 9.34227,-5.26069 14.34086,-7.00863 20.47825,-9.51104 z M 221.41139,206.9497 c -21.45245,5.64704 -44.28464,14.58696 -66.24215,28.1622 l -16.42775,0.61502 c 7.536,-6.79651 23.35915,-26.92837 5.71411,-18.05098 -18.56706,11.00121 -53.051525,45.15879 -59.041522,51.18204 8.837344,-3.60671 9.362344,-4.47794 28.375572,-9.66718 l 19.44065,-17.70061 12.86955,-0.37221 c -6.06511,4.30765 -11.80453,9.01774 -17.06083,14.16386 33.884,-11.02351 67.42225,-13.13519 103.72327,-12.68892 -0.91361,-0.86515 0.82663,-22.44349 -14.37515,-27.7022 z m 4.28813,0.24702 -2.31639,6.08504 c 13.44939,5.2012 12.33605,22.13862 13.57153,29.2074 l 23.96504,1.53628 c 2.66937,-8.12447 10.8128,-19.2575 20.92821,-23.78441 l 3.04357,-7.19452 c -39.07322,-6.1303 -41.79777,-4.37907 -59.19196,-5.84979 z"
       sodipodi:nodetypes="sssssssccccssscccccccccccccccccccccccccc"
       inkscape:export-filename="/home/canuto/Documents/Repos/kenu/export-trio.png"
       inkscape:export-xdpi="96"
       inkscape:export-ydpi="96" />
    <g
       aria-label="KENU"
       id="text1300"
       style="font-style:normal;font-weight:normal;font-size:273.785px;line-height:1.25;font-family:sans-serif;letter-spacing:0px;word-spacing:0px;fill:url(#linearGradient1357);fill-opacity:1;stroke:none;stroke-width:1.42596"
       transform="translate(-37.570844)"
       inkscape:export-filename="/home/canuto/Documents/Repos/kenu/export-trio.png"
       inkscape:export-xdpi="96"
       inkscape:export-ydpi="96">
      <path
         d="m 442.93075,169.26133 v 100.93148 h -27.6726 V 56.298276 h 27.6726 v 67.376774 l 50.53259,-67.376774 h 35.02523 l -65.63889,87.964124 50.90094,56.15218 30.78004,69.77823 h -33.55471 l -23.9432,-56.40675 -42.23042,-46.79736 z"
         style="font-style:normal;font-variant:normal;font-weight:bold;font-stretch:normal;font-size:273.785px;font-family:'Caviar Dreams';-inkscape-font-specification:'Caviar Dreams, Bold';font-variant-ligatures:normal;font-variant-caps:normal;font-variant-numeric:normal;font-variant-east-asian:normal;fill:url(#linearGradient1349);fill-opacity:1;stroke-width:1.42596"
         id="path1340"
         sodipodi:nodetypes="ccccccccccccccc" />
      <path
         d="M 691.9842,56.298276 V 83.970881 H 604.42113 V 149.3424 h 30.41307 l 6.72534,13.78996 -6.72534,13.88264 h -30.41307 v 65.37152 h 87.56307 v 27.80629 H 576.74852 l -0.0213,-94.91143 -7.1719,-11.86861 6.9844,-12.51994 0.20875,-94.594554 z"
         style="font-style:normal;font-variant:normal;font-weight:bold;font-stretch:normal;font-size:273.785px;font-family:'Caviar Dreams';-inkscape-font-specification:'Caviar Dreams, Bold';font-variant-ligatures:normal;font-variant-caps:normal;font-variant-numeric:normal;font-variant-east-asian:normal;fill:url(#linearGradient1351);fill-opacity:1;stroke-width:1.42596"
         id="path1342"
         sodipodi:nodetypes="ccccccccccccccccc" />
      <path
         d="m 728.61362,56.298276 h 25.26629 L 842.1114,148.11134 V 56.298276 h 27.80629 V 270.19281 h -24.19682 l -0.95875,-78.53376 -88.4759,-90.82171 v 169.35547 h -27.6726 z"
         style="font-style:normal;font-variant:normal;font-weight:bold;font-stretch:normal;font-size:273.785px;font-family:'Caviar Dreams';-inkscape-font-specification:'Caviar Dreams, Bold';font-variant-ligatures:normal;font-variant-caps:normal;font-variant-numeric:normal;font-variant-east-asian:normal;fill:url(#linearGradient1353);fill-opacity:1;stroke-width:1.42596"
         id="path1344"
         sodipodi:nodetypes="cccccccccccc" />
      <path
         d="m 1027.5312,56.298276 h 27.8063 V 206.96024 q -3.6094,25.80103 -21.2557,43.58101 -21.3895,21.38945 -51.46841,21.38945 -30.07892,0 -51.46837,-21.25577 -21.25577,-21.38945 -21.25577,-51.46837 V 56.298276 h 27.80629 V 199.20656 q 0,18.44841 13.10104,31.68313 13.23473,13.10104 31.81681,13.10104 18.71581,0 31.81681,-13.10104 13.101,-13.10104 13.101,-31.68313 z"
         style="font-style:normal;font-variant:normal;font-weight:bold;font-stretch:normal;font-size:273.785px;font-family:'Caviar Dreams';-inkscape-font-specification:'Caviar Dreams, Bold';font-variant-ligatures:normal;font-variant-caps:normal;font-variant-numeric:normal;font-variant-east-asian:normal;fill:url(#linearGradient1355);fill-opacity:1;stroke-width:1.42596"
         id="path1346" />
    </g>
    <text
       xml:space="preserve"
       style="font-style:normal;font-weight:normal;font-size:58.6793px;line-height:1.25;font-family:sans-serif;letter-spacing:9.67846px;word-spacing:0px;fill:#2789fb;fill-opacity:1;stroke:none;stroke-width:1.46698"
       x="374.55316"
       y="333.8678"
       id="text1304"
       inkscape:export-filename="/home/canuto/Documents/Repos/kenu/export-trio.png"
       inkscape:export-xdpi="96"
       inkscape:export-ydpi="96"><tspan
         sodipodi:role="line"
         id="tspan1302"
         x="374.55316"
         y="333.8678"
         style="font-style:normal;font-variant:normal;font-weight:normal;font-stretch:normal;font-size:58.6793px;font-family:'Caviar Dreams';-inkscape-font-specification:'Caviar Dreams, Normal';font-variant-ligatures:normal;font-variant-caps:normal;font-variant-numeric:normal;font-variant-east-asian:normal;fill:#2789fb;fill-opacity:1;stroke-width:1.46698"
         rotate="0 0 0 0 0 0 0 0 0 0 0 0 0 0 0 0">CASUAL SURFWEAR</tspan></text>
    <rect
       inkscape:export-ydpi="96"
       inkscape:export-xdpi="96"
       inkscape:export-filename="/home/canuto/Documents/Repos/kenu/export-trio.png"
       y="407.2767"
       x="-4.6802449"
       height="408.06378"
       width="1084.1472"
       id="rect1296-9"
       style="display:inline;opacity:0.998;fill:#f9f9f9;fill-opacity:1;stroke:none;stroke-width:2.7595;stroke-miterlimit:4;stroke-dasharray:none;stroke-opacity:1;paint-order:stroke markers fill;stop-color:#000000" />
    <path
       sodipodi:nodetypes="sssssssccccssscccccccccccccccccccccccccc"
       d="m 173.20792,464.59492 c -76.811481,0 -139.122161,62.31245 -139.122161,139.12394 0,76.81149 62.31068,139.12227 139.122161,139.12227 76.81148,0 139.1235,-62.31078 139.1235,-139.12227 0,-76.81148 -62.31202,-139.12394 -139.1235,-139.12394 z m 0.009,0.14451 c 74.59821,0 135.02048,64.38124 135.02048,138.97943 0,34.96789 -12.25748,65.96072 -34.04896,89.93734 -5.07444,-3.99937 -17.99878,-15.98782 -14.47684,-37.31774 -67.03225,-6.26727 -130.80425,4.26939 -191.282191,32.54547 0.19664,0.24167 0.37936,0.49488 0.57762,0.73517 -19.25955,-23.33876 -30.82596,-53.26353 -30.82596,-85.90024 0,-74.59819 60.43731,-138.97943 135.035481,-138.97943 z m 38.68302,13.26907 c -141.266621,-46.62981 -70.63332,-23.31491 0,0 z m -20.01611,7.01265 c -59.4466,25.60235 -80.10405,58.38051 -106.459281,83.24272 28.425421,17.37169 61.047051,31.55021 81.434101,61.05182 l 20.77994,-9.80629 z m 29.52756,129.99233 c -21.45245,5.64705 -44.28464,14.58696 -66.24215,28.1622 l -16.42775,0.61502 c 7.536,-6.79651 23.35915,-26.92837 5.71411,-18.05098 -18.56706,11.00121 -53.051521,45.15879 -59.041521,51.18206 8.83734,-3.60672 9.36234,-4.47794 28.375571,-9.6672 l 19.44065,-17.7006 12.86955,-0.37221 c -6.06511,4.30764 -11.80453,9.01774 -17.06083,14.16386 33.884,-11.02351 67.42225,-13.13519 103.72327,-12.68892 -0.91361,-0.86515 0.82663,-22.44349 -14.37515,-27.7022 z m 4.28813,0.24702 -2.31639,6.08505 c 13.44939,5.2012 12.33605,22.13861 13.57153,29.20739 l 23.96503,1.53628 c 2.66938,-8.12446 10.81281,-19.2575 20.92823,-23.78441 l 3.04355,-7.19452 C 245.81826,614.98 243.09371,616.73123 225.69952,615.2605 Z"
       style="font-variation-settings:normal;display:inline;opacity:1;vector-effect:none;fill:#000000;fill-opacity:1;stroke:none;stroke-width:0.215425;stroke-linecap:butt;stroke-linejoin:miter;stroke-miterlimit:4;stroke-dasharray:none;stroke-dashoffset:0;stroke-opacity:1;stop-color:#000000;stop-opacity:1"
       id="path1261-7"
       inkscape:export-filename="/home/canuto/Documents/Repos/kenu/export-trio.png"
       inkscape:export-xdpi="96"
       inkscape:export-ydpi="96" />
    <g
       transform="translate(-37.570861,408.06378)"
       style="font-style:normal;font-weight:normal;font-size:273.785px;line-height:1.25;font-family:sans-serif;letter-spacing:0px;word-spacing:0px;display:inline;fill:#000000;fill-opacity:1;stroke:none;stroke-width:1.42596"
       id="text1300-6"
       aria-label="KENU"
       inkscape:export-filename="/home/canuto/Documents/Repos/kenu/export-trio.png"
       inkscape:export-xdpi="96"
       inkscape:export-ydpi="96">
      <path
         sodipodi:nodetypes="ccccccccccccccc"
         id="path1340-2"
         style="font-style:normal;font-variant:normal;font-weight:bold;font-stretch:normal;font-size:273.785px;font-family:'Caviar Dreams';-inkscape-font-specification:'Caviar Dreams, Bold';font-variant-ligatures:normal;font-variant-caps:normal;font-variant-numeric:normal;font-variant-east-asian:normal;fill:#000000;fill-opacity:1;stroke-width:1.42596"
         d="m 442.93075,169.26133 v 100.93148 h -27.6726 V 56.298276 h 27.6726 v 67.376774 l 50.53259,-67.376774 h 35.02523 l -65.63889,87.964124 50.90094,56.15218 30.78004,69.77823 h -33.55471 l -23.9432,-56.40675 -42.23042,-46.79736 z" />
      <path
         sodipodi:nodetypes="ccccccccccccccccc"
         id="path1342-7"
         style="font-style:normal;font-variant:normal;font-weight:bold;font-stretch:normal;font-size:273.785px;font-family:'Caviar Dreams';-inkscape-font-specification:'Caviar Dreams, Bold';font-variant-ligatures:normal;font-variant-caps:normal;font-variant-numeric:normal;font-variant-east-asian:normal;fill:#000000;fill-opacity:1;stroke-width:1.42596"
         d="M 691.9842,56.298276 V 83.970881 H 604.42113 V 149.3424 h 30.41307 l 6.72534,13.78996 -6.72534,13.88264 h -30.41307 v 65.37152 h 87.56307 v 27.80629 H 576.74852 l -0.0213,-94.91143 -7.1719,-11.86861 6.9844,-12.51994 0.20875,-94.594554 z" />
      <path
         sodipodi:nodetypes="cccccccccccc"
         id="path1344-1"
         style="font-style:normal;font-variant:normal;font-weight:bold;font-stretch:normal;font-size:273.785px;font-family:'Caviar Dreams';-inkscape-font-specification:'Caviar Dreams, Bold';font-variant-ligatures:normal;font-variant-caps:normal;font-variant-numeric:normal;font-variant-east-asian:normal;fill:#000000;fill-opacity:1;stroke-width:1.42596"
         d="m 728.61362,56.298276 h 25.26629 L 842.1114,148.11134 V 56.298276 h 27.80629 V 270.19281 h -24.19682 l -0.95875,-78.53376 -88.4759,-90.82171 v 169.35547 h -27.6726 z" />
      <path
         id="path1346-5"
         style="font-style:normal;font-variant:normal;font-weight:bold;font-stretch:normal;font-size:273.785px;font-family:'Caviar Dreams';-inkscape-font-specification:'Caviar Dreams, Bold';font-variant-ligatures:normal;font-variant-caps:normal;font-variant-numeric:normal;font-variant-east-asian:normal;fill:#000000;fill-opacity:1;stroke-width:1.42596"
         d="m 1027.5312,56.298276 h 27.8063 V 206.96024 q -3.6094,25.80103 -21.2557,43.58101 -21.3895,21.38945 -51.46841,21.38945 -30.07892,0 -51.46837,-21.25577 -21.25577,-21.38945 -21.25577,-51.46837 V 56.298276 h 27.80629 V 199.20656 q 0,18.44841 13.10104,31.68313 13.23473,13.10104 31.81681,13.10104 18.71581,0 31.81681,-13.10104 13.101,-13.10104 13.101,-31.68313 z" />
    </g>
    <text
       id="text1304-8"
       y="741.93158"
       x="374.55316"
       style="font-style:normal;font-weight:normal;font-size:58.6793px;line-height:1.25;font-family:sans-serif;letter-spacing:9.67846px;word-spacing:0px;display:inline;fill:#000000;fill-opacity:1;stroke:none;stroke-width:1.46698;"
       xml:space="preserve"
       inkscape:export-filename="/home/canuto/Documents/Repos/kenu/export-trio.png"
       inkscape:export-xdpi="96"
       inkscape:export-ydpi="96"><tspan
         rotate="0 0 0 0 0 0 0 0 0 0 0 0 0 0 0 0"
         style="font-style:normal;font-variant:normal;font-weight:normal;font-stretch:normal;font-size:58.6793px;font-family:'Caviar Dreams';-inkscape-font-specification:'Caviar Dreams, Normal';font-variant-ligatures:normal;font-variant-caps:normal;font-variant-numeric:normal;font-variant-east-asian:normal;fill:#000000;fill-opacity:1;stroke-width:1.46698;"
         y="741.93158"
         x="374.55316"
         id="tspan1302-8"
         sodipodi:role="line">CASUAL SURFWEAR</tspan></text>
    <rect
       style="display:inline;opacity:0.998;fill:#ffe2f9;fill-opacity:1;stroke:none;stroke-width:2.7595;stroke-miterlimit:4;stroke-dasharray:none;stroke-opacity:1;paint-order:stroke markers fill;stop-color:#000000"
       id="rect1296-9-4"
       width="1084.1472"
       height="408.06378"
       x="-4.6802449"
       y="815.34045"
       inkscape:export-filename="/home/canuto/Documents/Repos/kenu/export-trio.png"
       inkscape:export-xdpi="96"
       inkscape:export-ydpi="96" />
    <path
       id="path1261-7-5"
       style="font-variation-settings:normal;display:inline;opacity:1;vector-effect:none;fill:url(#linearGradient1516);fill-opacity:1;stroke:none;stroke-width:0.215425;stroke-linecap:butt;stroke-linejoin:miter;stroke-miterlimit:4;stroke-dasharray:none;stroke-dashoffset:0;stroke-opacity:1;stop-color:#000000;stop-opacity:1"
       d="m 173.20793,872.65871 c -76.811485,0 -139.122175,62.31245 -139.122175,139.12389 0,76.8115 62.31069,139.1223 139.122175,139.1223 76.81148,0 139.12349,-62.3108 139.12349,-139.1223 0,-76.81143 -62.31201,-139.12389 -139.12349,-139.12389 z m 0.009,0.14451 c 74.59822,0 135.02049,64.38124 135.02049,138.97938 0,34.9679 -12.25748,65.9608 -34.04896,89.9374 -5.07444,-3.9994 -17.99878,-15.9878 -14.47684,-37.3178 -67.03225,-6.2672 -130.80426,4.2694 -191.282205,32.5455 0.19664,0.2417 0.37936,0.4949 0.57762,0.7352 -19.25955,-23.3388 -30.82596,-53.2635 -30.82596,-85.9003 0,-74.59814 60.43731,-138.97938 135.035495,-138.97938 z m 18.66692,20.28172 c -59.44662,25.60235 -80.10407,58.38051 -106.459305,83.24272 28.425425,17.37169 61.037605,31.41184 81.424655,60.91344 l 20.78939,-9.6679 z m 29.52755,129.99236 c -21.45244,5.647 -44.28463,14.5869 -66.24214,28.1622 l -16.42775,0.615 c 7.536,-6.7965 23.35915,-26.9284 5.71411,-18.051 -18.56706,11.0012 -53.051535,45.1588 -59.041535,51.1821 8.83734,-3.6068 9.36234,-4.478 28.375585,-9.6672 l 19.44065,-17.7006 12.86955,-0.3722 c -6.06511,4.3076 -11.80453,9.0177 -17.06083,14.1638 33.884,-11.0235 67.42225,-13.1352 103.72327,-12.6889 -0.91361,-0.8652 0.82663,-22.4435 -14.37515,-27.7022 z m 4.28813,0.247 -2.31639,6.085 c 13.44939,5.2012 12.33605,22.1386 13.57153,29.2074 l 23.96504,1.5363 c 2.66938,-8.1245 10.81281,-19.2575 20.92823,-23.7844 l 3.04355,-7.1945 c -39.07321,-6.1303 -41.79776,-4.3791 -59.19195,-5.8498 z"
       sodipodi:nodetypes="sssssssccccsssccccccccccccccccccccccccc"
       inkscape:export-filename="/home/canuto/Documents/Repos/kenu/export-trio.png"
       inkscape:export-xdpi="96"
       inkscape:export-ydpi="96" />
    <g
       aria-label="KENU"
       id="text1300-6-6"
       style="font-style:normal;font-weight:normal;font-size:273.785px;line-height:1.25;font-family:sans-serif;letter-spacing:0px;word-spacing:0px;display:inline;fill:url(#linearGradient1640);fill-opacity:1;stroke:none;stroke-width:1.42596"
       transform="translate(-37.570865,816.12756)"
       inkscape:export-filename="/home/canuto/Documents/Repos/kenu/export-trio.png"
       inkscape:export-xdpi="96"
       inkscape:export-ydpi="96">
      <g
         id="g1656">
        <path
           id="path1340-2-5"
           style="font-style:normal;font-variant:normal;font-weight:bold;font-stretch:normal;font-size:273.785px;font-family:'Caviar Dreams';-inkscape-font-specification:'Caviar Dreams, Bold';font-variant-ligatures:normal;font-variant-caps:normal;font-variant-numeric:normal;font-variant-east-asian:normal;fill:url(#linearGradient1660);fill-opacity:1;stroke-width:5.38945"
           d="M 1427.4805 3297.3574 L 1427.4805 4105.7773 L 1532.0684 4105.7773 L 1532.0684 3724.3047 L 1539.1426 3715.7148 L 1698.7539 3892.5859 L 1789.248 4105.7773 L 1916.0684 4105.7773 L 1799.7344 3842.0488 L 1607.3535 3629.8203 L 1855.4375 3297.3574 L 1723.0586 3297.3574 L 1532.0684 3552.0098 L 1532.0684 3297.3574 L 1427.4805 3297.3574 z M 2037.8359 3297.3574 L 2037.0469 3654.8809 L 2010.6504 3702.1992 L 2037.7559 3747.0566 L 2037.8359 4105.7773 L 2473.373 4105.7773 L 2473.373 4000.6836 L 2142.4258 4000.6836 L 2142.4258 3753.6094 L 2257.373 3753.6094 L 2282.791 3701.1406 L 2257.373 3649.0195 L 2142.4258 3649.0195 L 2142.4258 3401.9473 L 2473.373 3401.9473 L 2473.373 3297.3574 L 2037.8359 3297.3574 z M 2611.8145 3297.3574 L 2611.8145 4105.7773 L 2716.4043 4105.7773 L 2716.4043 3465.6934 L 3050.8008 3808.957 L 3054.4258 4105.7773 L 3145.877 4105.7773 L 3145.877 3297.3574 L 3040.7832 3297.3574 L 3040.7832 3644.3672 L 2707.3105 3297.3574 L 2611.8145 3297.3574 z M 3296.9512 3297.3574 L 3296.9512 3837.4824 C 3296.9512 3913.2718 3323.7312 3978.1151 3377.2891 4032.0098 C 3431.1837 4085.5676 3496.025 4112.3457 3571.8145 4112.3457 C 3647.6038 4112.3457 3712.445 4085.3986 3766.3398 4031.5039 C 3810.803 3986.704 3837.5832 3931.7995 3846.6777 3866.7891 L 3846.6777 3297.3574 L 3741.582 3297.3574 L 3741.582 3837.4824 C 3741.582 3884.3034 3725.0768 3924.22 3692.0664 3957.2305 C 3659.056 3990.241 3618.9724 4006.7461 3571.8145 4006.7461 C 3524.9935 4006.7461 3484.9099 3990.241 3451.5625 3957.2305 C 3418.552 3923.8831 3402.0469 3883.9666 3402.0469 3837.4824 L 3402.0469 3297.3574 L 3296.9512 3297.3574 z "
           transform="matrix(0.26458333,0,0,0.26458333,37.570865,-816.12756)" />
      </g>
    </g>
    <text
       xml:space="preserve"
       style="font-style:normal;font-weight:normal;font-size:58.6793px;line-height:1.25;font-family:sans-serif;letter-spacing:9.67846px;word-spacing:0px;display:inline;fill:#ff0166;fill-opacity:1;stroke:none;stroke-width:1.46698;"
       x="374.55316"
       y="1149.9954"
       id="text1304-8-8"
       inkscape:export-filename="/home/canuto/Documents/Repos/kenu/export-trio.png"
       inkscape:export-xdpi="96"
       inkscape:export-ydpi="96"><tspan
         sodipodi:role="line"
         id="tspan1302-8-8"
         x="374.55316"
         y="1149.9954"
         style="font-style:normal;font-variant:normal;font-weight:normal;font-stretch:normal;font-size:58.6793px;font-family:'Caviar Dreams';-inkscape-font-specification:'Caviar Dreams, Normal';font-variant-ligatures:normal;font-variant-caps:normal;font-variant-numeric:normal;font-variant-east-asian:normal;fill:#ff0166;fill-opacity:1;stroke-width:1.46698;"
         rotate="0 0 0 0 0 0 0 0 0 0 0 0 0 0 0 0">CASUAL SURFWEAR</tspan></text>
  </g>
</svg>
